<svg width="142" height="142" viewBox="0 0 142 142" fill="none" xmlns="http://www.w3.org/2000/svg">
<path opacity="0.4" fill-rule="evenodd" clip-rule="evenodd" d="M3.81769 104.306C3.81769 104.306 4.66656 88.1772 13.5797 81.5277C13.5797 81.5277 19.2389 74.8782 39.8948 79.1225C39.8948 79.1225 72.435 83.9328 75.2646 46.1579C75.2646 46.1579 80.0748 31.7271 88.4221 20.5503C97.3353 9.23194 110.634 6.54384 126.197 19.5599C126.197 19.5599 143.882 35.1226 136.383 66.2479C136.383 66.2479 135.252 88.3187 104.975 100.769C104.975 100.769 93.9398 101.759 81.3481 112.229C81.3481 112.229 66.3514 129.913 34.2357 131.187C34.0942 131.187 7.35466 131.328 3.81769 104.306Z" fill="#F7DB95"/>
<path d="M16.4093 117.039C15.2775 117.18 14.1456 116.332 14.0042 115.058L2.40289 44.3187C2.26141 43.0454 2.9688 41.9136 4.10063 41.6306L78.0941 29.4634C79.226 29.322 80.3578 30.1708 80.4993 31.4441L92.1005 102.184C92.242 103.457 91.5346 104.589 90.4028 104.872L16.4093 117.039Z" fill="#797085"/>
<path d="M23.2003 106.711C22.0685 106.852 20.9366 105.862 20.7951 104.447L11.1746 46.5824C10.8916 45.1676 11.599 43.7528 12.7308 43.6114L70.1713 34.2738C71.3031 34.1323 72.435 35.1226 72.5764 36.5374L82.0555 94.2608C82.3385 95.6756 81.6311 97.0904 80.4993 97.2319L23.2003 106.711Z" fill="#FFF2E9"/>
<path d="M72.435 35.264C71.1617 35.4055 70.0299 34.6981 69.8884 33.4248C69.7469 32.1515 70.4543 31.0196 71.7276 30.8781C73.0009 30.7367 74.1328 31.4441 74.2742 32.7174C74.4157 33.8492 73.5668 34.981 72.435 35.264Z" fill="#FAFAFF"/>
<path d="M63.6633 36.6788C62.39 36.8203 61.2581 36.1129 61.1167 34.8396C60.9752 33.5663 61.6826 32.4345 62.9559 32.293C64.2292 32.1515 65.361 32.8589 65.5025 34.1322C65.644 35.2641 64.7951 36.3959 63.6633 36.6788Z" fill="#FAFAFF"/>
<path d="M54.8916 38.0936C53.6183 38.2351 52.4865 37.5277 52.345 36.2544C52.2035 34.981 52.9109 33.8492 54.1842 33.7077C55.4575 33.5663 56.5894 34.2736 56.7309 35.547C56.8723 36.6788 56.0235 37.8106 54.8916 38.0936Z" fill="#FAFAFF"/>
<path d="M46.1199 39.5084C44.8466 39.6499 43.7148 38.9425 43.5733 37.6692C43.4318 36.3959 44.1392 35.2641 45.4125 35.1226C46.6858 34.9811 47.8176 35.6885 47.9591 36.9618C48.1006 38.0936 47.2517 39.2255 46.1199 39.5084Z" fill="#FAFAFF"/>
<path d="M37.3482 40.9232C36.0749 41.0646 34.943 40.3573 34.8015 39.0839C34.6601 37.8106 35.3675 36.6788 36.6408 36.5373C37.9141 36.3958 39.0459 37.1032 39.1874 38.3765C39.3289 39.5084 38.48 40.6402 37.3482 40.9232Z" fill="#FAFAFF"/>
<path d="M28.5765 42.338C27.3032 42.4795 26.1714 41.7721 26.0299 40.4988C25.8884 39.2255 26.5958 38.0937 27.8691 37.9522C29.1424 37.8107 30.2742 38.5181 30.4157 39.7914C30.5572 40.9232 29.7083 42.0551 28.5765 42.338Z" fill="#FAFAFF"/>
<path d="M19.6633 43.7528C18.39 43.8942 17.2581 43.1868 17.1167 41.9135C16.9752 40.6402 17.6826 39.5084 18.9559 39.3669C20.2292 39.2254 21.361 39.9328 21.5025 41.2061C21.7855 42.338 20.9366 43.4698 19.6633 43.7528Z" fill="#FAFAFF"/>
<path d="M10.8917 45.1676C9.61837 45.3091 8.48654 44.6017 8.34506 43.3284C8.20358 42.0551 8.91098 40.9232 10.1843 40.7818C11.4576 40.6403 12.5894 41.3477 12.7309 42.621C13.0139 43.7528 12.165 44.8847 10.8917 45.1676Z" fill="#FAFAFF"/>
<path d="M72.152 33.8492C71.3031 33.9907 70.5957 33.5663 70.4542 32.8589L69.6053 27.9071C69.4639 27.1997 70.0298 26.4923 70.8787 26.3508C71.7275 26.2094 72.4349 26.6338 72.5764 27.3412L73.4253 32.293C73.5668 33.0003 73.0008 33.7077 72.152 33.8492Z" fill="#1E2222"/>
<path d="M63.3803 35.264C62.5314 35.4054 61.824 34.981 61.6826 34.2736L60.8337 29.3218C60.6922 28.6144 61.2581 27.9071 62.107 27.7656C62.9559 27.6241 63.6633 28.0485 63.8047 28.7559L64.6536 33.7077C64.7951 34.5566 64.2292 35.1225 63.3803 35.264Z" fill="#1E2222"/>
<path d="M54.6086 36.8202C53.7598 36.9616 53.0524 36.5372 52.9109 35.8298L52.062 30.8781C51.9205 30.1707 52.4864 29.4633 53.3353 29.3218C54.1842 29.1803 54.8916 29.6047 55.0331 30.3121L55.8819 35.2639C56.0234 35.9713 55.4575 36.6787 54.6086 36.8202Z" fill="#1E2222"/>
<path d="M45.837 38.235C44.9881 38.3765 44.2807 37.9521 44.1392 37.2447L43.2903 32.2929C43.1489 31.5855 43.7148 30.8781 44.5637 30.7366C45.4125 30.5952 46.1199 31.0196 46.2614 31.727L47.1103 36.6788C47.2518 37.3862 46.6858 38.0935 45.837 38.235Z" fill="#1E2222"/>
<path d="M37.0652 39.6498C36.2164 39.7912 35.509 39.3668 35.3675 38.6594L34.5186 33.7076C34.3771 33.0002 34.9431 32.2929 35.7919 32.1514C36.6408 32.0099 37.3482 32.4343 37.4897 33.1417L38.3385 38.0935C38.48 38.8009 37.9141 39.5083 37.0652 39.6498Z" fill="#1E2222"/>
<path d="M28.2936 41.0646C27.4447 41.2061 26.7373 40.7817 26.5958 40.0743L25.7469 35.1225C25.6055 34.4151 26.1714 33.7077 27.0203 33.5662C27.8691 33.4248 28.5765 33.8492 28.718 34.5566L29.5669 39.5083C29.7084 40.2157 29.1424 40.9231 28.2936 41.0646Z" fill="#1E2222"/>
<path d="M19.5218 42.4793C18.673 42.6208 17.9656 42.1964 17.8241 41.489L16.9752 36.5372C16.8337 35.8298 17.3997 35.1224 18.2485 34.981C19.0974 34.8395 19.8048 35.2639 19.9463 35.9713L20.7951 40.9231C20.9366 41.772 20.3707 42.3379 19.5218 42.4793Z" fill="#1E2222"/>
<path d="M10.7501 44.0357C9.90124 44.1772 9.19384 43.7528 9.05236 43.0454L8.20349 38.0936C8.06201 37.3862 8.62793 36.6788 9.4768 36.5374C10.3257 36.3959 11.0331 36.8203 11.1745 37.5277L12.0234 42.4795C12.1649 43.1869 11.599 43.8943 10.7501 44.0357Z" fill="#1E2222"/>
<g opacity="0.5">
<path d="M12.0235 51.9585L11.882 51.817L73.2839 41.6306L73.4254 41.9135L12.0235 51.9585Z" fill="#C6794D"/>
<path d="M74.2809 47.2055L12.8519 57.2777L12.8748 57.4173L74.3038 47.3452L74.2809 47.2055Z" fill="#C6794D"/>
<path d="M75.1246 52.5866L13.6956 62.6588L13.7184 62.7984L75.1475 52.7262L75.1246 52.5866Z" fill="#C6794D"/>
<path d="M14.7115 68.2285V68.0871L76.1134 58.0421V58.1835L14.7115 68.2285Z" fill="#C6794D"/>
<path d="M76.9772 63.552L15.5233 73.4748L15.5458 73.6145L76.9997 63.6917L76.9772 63.552Z" fill="#C6794D"/>
<path d="M77.9619 68.9309L16.5018 78.8225L16.5243 78.9622L77.9844 69.0705L77.9619 68.9309Z" fill="#C6794D"/>
<path d="M78.8185 74.461L17.3583 84.3526L17.3808 84.4923L78.841 74.6006L78.8185 74.461Z" fill="#C6794D"/>
<path d="M79.7935 79.8069L18.3396 89.7297L18.3622 89.8693L79.8161 79.9466L79.7935 79.8069Z" fill="#C6794D"/>
<path d="M80.5167 85.3552L19.2024 95.2492L19.2249 95.3889L80.5392 85.4949L80.5167 85.3552Z" fill="#C6794D"/>
<path d="M81.3609 90.7372L20.0466 100.631L20.0692 100.771L81.3834 90.8769L81.3609 90.7372Z" fill="#C6794D"/>
</g>
<path d="M21.927 55.92C20.9366 57.9007 20.2292 60.0229 19.2389 62.0036C19.3804 62.0036 19.3804 62.0036 19.5218 62.0036C19.9463 59.5984 21.2196 57.3348 22.9173 55.637C22.7759 55.637 22.7759 55.637 22.6344 55.637C21.927 57.0518 21.644 58.6081 21.644 60.0229C21.644 60.1643 21.7855 60.0229 21.7855 60.0229C23.7662 59.174 25.181 57.1933 25.6054 55.2126C25.6054 55.0711 25.464 55.2126 25.3225 55.2126C24.7566 56.0614 24.1907 56.9103 24.1907 58.0421C24.1907 58.6081 24.3321 59.3155 24.7566 59.5984C25.181 59.8814 25.6054 59.8814 26.0299 59.5984C26.7373 59.174 27.0202 58.1836 27.1617 57.3348C27.1617 57.1933 27.0202 57.3348 26.8788 57.3348C26.5958 57.6177 26.3128 58.0421 26.1714 58.4666C26.0299 58.891 26.0299 59.3155 25.8884 59.7399C26.8788 59.8814 28.1521 59.4569 28.5765 58.6081C28.718 58.3251 28.718 58.0422 28.435 57.9007C28.0106 57.7592 27.3032 58.0422 26.8788 58.1836C26.8788 58.1836 26.7373 58.3251 26.8788 58.3251C27.5861 58.6081 28.435 58.7495 29.1424 58.6081C30.1328 58.3251 30.8402 57.6177 31.5476 57.0518H31.4061C30.6987 57.7592 30.6987 58.6081 30.4157 59.4569C30.4157 59.5984 30.5572 59.4569 30.6987 59.4569C31.1231 59.0325 31.5476 58.6081 32.1135 58.0421C31.972 58.0421 31.972 58.0421 31.8305 58.0421C32.3964 58.4666 33.1038 58.7495 33.8112 58.4666C34.5186 58.1836 35.0845 57.6177 35.3675 57.0518C36.3578 55.4955 36.9238 53.5148 37.7726 51.8171C37.6312 51.8171 37.6312 51.8171 37.4897 51.8171C37.0652 53.2319 36.4993 54.5052 36.0749 55.92C35.6504 57.0518 35.3675 58.4666 35.7919 59.5984C35.7919 59.7399 36.0749 59.5984 36.0749 59.5984C36.0749 59.174 36.2164 58.0421 35.6504 57.7592C35.509 57.6177 35.226 57.6177 34.9431 57.7592C34.5186 57.7592 33.9527 57.9007 33.5283 57.9007C33.5283 57.9007 33.2453 57.9007 33.3868 58.0421C34.5186 59.4569 36.4993 59.174 37.9141 58.1836C38.3385 57.9007 38.6215 57.6177 38.9045 57.1933C39.0459 57.0518 39.3289 56.7688 39.0459 56.7688C38.6215 56.7688 38.1971 57.3348 37.9141 57.6177C37.7726 57.7592 38.0556 57.7592 38.0556 57.6177C38.763 57.0518 39.4704 56.4859 40.0363 55.92C39.8948 55.92 39.8948 55.92 39.7533 55.92C39.7533 56.4859 39.4704 57.0518 39.4704 57.6177C39.4704 57.7592 39.6119 57.6177 39.7533 57.6177C40.6022 56.7688 41.5926 56.3444 42.4414 55.637C42.3 55.637 42.3 55.637 42.1585 55.637C42.017 56.2029 41.8755 56.7688 41.8755 57.3348C41.8755 57.4762 42.017 57.3348 42.1585 57.3348C42.4414 57.0518 42.8659 56.7688 43.1488 56.4859C43.1488 56.4859 43.8562 55.92 43.5733 55.7785C43.5733 55.7785 43.4318 55.7785 43.4318 55.92C42.7244 58.4666 42.7244 61.1547 42.4414 63.7013C42.5829 63.7013 42.5829 63.7013 42.7244 63.7013C42.1585 63.1354 41.4511 62.428 41.734 61.5791C42.017 60.5888 43.4318 60.3058 44.2807 60.1643C44.4221 60.1643 44.4221 60.0229 44.2807 60.0229C43.2903 60.1643 42.1585 60.4473 41.5926 61.2962C41.0266 62.2865 41.734 63.2769 42.4414 63.8428H42.7244C43.1488 61.2962 43.0074 58.6081 43.7147 56.0614C43.7147 56.0614 43.5733 56.0614 43.5733 56.2029L43.2903 56.4859C43.1488 56.6274 43.0074 56.7688 42.8659 56.9103C42.5829 57.0518 42.4414 57.3348 42.1585 57.4762C42.3 57.4762 42.3 57.4762 42.4414 57.4762C42.5829 56.9103 42.7244 56.3444 42.7244 55.7785C42.7244 55.637 42.5829 55.7785 42.4414 55.7785C41.5926 56.6274 40.6022 57.0518 39.7533 57.7592C39.8948 57.7592 39.8948 57.7592 40.0363 57.7592C40.0363 57.1933 40.3193 56.6274 40.3193 56.0614C40.3193 55.92 40.1778 56.0614 40.0363 56.0614C39.4704 56.6274 38.6215 57.1933 38.0556 57.7592H38.1971C38.48 57.4762 38.6215 57.3348 38.9045 57.0518C39.0459 56.9103 38.763 57.1933 38.763 57.3348C38.6215 57.4762 38.48 57.6177 38.3385 57.7592C38.0556 58.0421 37.7726 58.1836 37.4897 58.4666C36.2164 59.174 34.6601 59.174 33.8112 58.0421L33.6697 58.1836C34.2357 58.1836 34.9431 58.0422 35.509 58.1836C36.0749 58.3251 35.9334 59.4569 35.9334 59.8814C36.0749 59.8814 36.0749 59.8814 36.2164 59.8814C35.9334 58.6081 36.2164 57.3348 36.6408 56.0614C37.0652 54.7881 37.6312 53.5148 37.9141 52.1C37.9141 51.9586 37.7726 52.1 37.6312 52.1C36.7823 53.5148 36.3578 55.0711 35.509 56.6274C35.0845 57.3348 34.6601 58.0421 34.0942 58.4666C33.3868 58.891 32.6794 58.7495 31.972 58.1836C31.972 58.1836 31.8305 58.1836 31.689 58.1836C31.2646 58.6081 30.8402 59.0325 30.2742 59.5984C30.4157 59.5984 30.4157 59.5984 30.5572 59.5984C30.9816 58.7495 30.9816 57.9007 31.5476 57.1933C31.689 57.0518 31.4061 57.0518 31.4061 57.1933C30.8402 57.7592 30.1328 58.3251 29.4254 58.7495C28.718 59.0325 27.8691 58.891 27.1617 58.6081V58.7495C27.4447 58.6081 28.5765 58.0422 28.5765 58.6081C28.718 59.0325 28.1521 59.4569 27.8691 59.5984C27.5861 59.7399 27.3032 59.8814 27.0202 59.8814C26.8788 59.8814 26.7373 59.8814 26.4543 60.0229C26.1714 60.0229 26.0299 60.0229 26.1714 59.7399C26.3128 59.4569 26.3128 59.174 26.3128 58.891C26.4543 58.4666 26.7373 58.0421 27.0202 57.7592C26.8788 57.7592 26.8788 57.7592 26.7373 57.7592C26.5958 58.4666 26.3128 59.3155 25.7469 59.8814C25.3225 60.3058 24.898 60.1643 24.4736 59.7399C23.4833 58.6081 24.4736 56.6274 25.3225 55.7785C25.181 55.7785 25.181 55.7785 25.0395 55.7785C24.6151 57.7592 23.2003 59.7399 21.3611 60.4473H21.5026C21.5026 58.891 21.7855 57.4762 22.4929 56.0614C22.4929 55.92 22.3514 56.0614 22.2099 56.0614C20.5122 57.7592 19.0974 60.0229 18.8145 62.5695C18.8145 62.711 18.9559 62.5695 19.0974 62.5695C20.0878 60.5888 20.7952 58.4666 21.7855 56.4859C22.2099 55.7785 21.927 55.7785 21.927 55.92Z" fill="#C6794D"/>
<path d="M41.0266 54.2223C41.0266 54.3638 41.0266 54.5054 41.0266 54.5054C41.0266 54.6469 41.3097 54.6469 41.3097 54.5054C41.3097 54.3638 41.3097 54.2223 41.3097 54.2223C41.3097 54.0808 41.0266 54.0808 41.0266 54.2223Z" fill="#C6794D"/>
<path d="M40.8852 56.3445C41.1683 56.3445 41.1683 56.7691 41.1683 56.9106C41.1683 57.0522 41.4513 56.9106 41.4513 56.9106C41.4513 56.6276 41.4513 56.203 41.0267 56.203C40.8852 56.203 40.7437 56.203 40.8852 56.3445C40.7437 56.3445 40.7437 56.3445 40.8852 56.3445Z" fill="#C6794D"/>
<path d="M24.898 67.0969C24.4736 68.7946 23.7662 70.4924 22.4929 71.7657C22.4929 71.7657 22.6343 71.7657 22.7758 71.7657C23.9076 70.2094 24.4736 68.3702 25.4639 66.6724C25.3224 66.6724 25.3224 66.6724 25.181 66.6724C24.898 67.2384 24.7565 67.8043 24.7565 68.3702C24.7565 68.9361 24.898 69.502 24.898 70.0679H25.0395C26.8787 69.6435 28.152 68.2287 28.8594 66.531C28.8594 66.3895 28.7179 66.531 28.5765 66.531C28.152 67.2384 27.8691 67.9457 27.8691 68.6531C27.8691 69.3605 27.8691 70.2094 27.8691 70.9168C27.8691 71.0583 28.152 70.9168 28.152 70.9168C28.152 70.2094 28.0105 69.502 28.152 68.7946C28.152 67.9457 28.435 67.2384 28.8594 66.531C28.7179 66.531 28.7179 66.531 28.5765 66.531C27.8691 68.0872 26.7372 69.502 24.898 69.785H25.0395C25.0395 69.2191 24.898 68.6531 24.898 68.0872C24.898 67.5213 25.0395 66.9554 25.3224 66.3895C25.3224 66.248 25.181 66.3895 25.0395 66.3895C24.0491 68.0872 23.4832 69.9265 22.3514 71.4827C22.3514 71.6242 22.4929 71.4827 22.6343 71.4827C23.9076 70.2094 24.615 68.5117 25.0395 66.6724C25.181 66.9554 25.0395 67.0969 24.898 67.0969Z" fill="#C6794D"/>
<path d="M31.2646 68.7946C31.1232 68.5116 31.5476 68.2286 31.5476 68.0872C31.5476 67.8042 30.9817 67.8042 30.8402 67.8042C30.5572 67.8042 30.1328 68.5116 29.9913 68.7946C29.7084 69.219 29.5669 69.7849 29.5669 70.3508C29.5669 70.4923 29.7084 70.3508 29.8499 70.3508C30.2743 70.0679 30.8402 69.7849 31.2646 69.5019C31.8306 69.0775 31.972 68.2286 32.255 67.6627C32.255 67.5212 32.1135 67.6627 31.972 67.6627C31.6891 68.0872 31.4061 68.5116 31.4061 68.936C31.4061 69.5019 31.6891 70.0679 31.6891 70.6338H31.8306C32.538 70.2093 33.2453 69.6434 33.6698 68.7946C34.0942 67.9457 34.2357 67.0968 34.2357 66.1065C34.0942 66.1065 34.0942 66.1065 33.9527 66.1065C33.9527 66.6724 33.9527 67.2383 34.0942 67.6627C34.0942 67.9457 34.2357 68.3701 34.2357 68.6531C34.2357 68.7946 34.3772 69.0775 34.2357 69.0775C34.2357 69.0775 34.2357 69.0775 34.2357 69.219C34.2357 69.3605 34.6601 69.3605 34.8016 69.5019C34.9431 69.5019 35.0846 69.5019 35.2261 69.5019C35.3675 69.5019 35.226 69.5019 35.3675 69.5019C35.3675 69.5019 35.509 69.5019 35.6505 69.5019C35.792 69.3605 35.792 69.219 35.792 69.0775C35.792 68.936 35.792 68.5116 35.9334 68.5116C35.792 68.5116 35.792 68.5116 35.6505 68.5116C35.792 68.5116 35.792 68.5116 35.9334 68.3701C35.2261 68.0872 34.3772 67.6627 33.5283 67.6627V67.8042C34.8016 67.5212 36.2164 67.5212 37.4897 67.5212C37.4897 67.5212 37.6312 67.5212 37.6312 67.3798C37.6312 67.2383 37.6312 67.0968 37.6312 67.0968C37.6312 66.9553 37.4897 67.0968 37.3482 67.0968C36.7823 67.6627 36.4994 68.2286 35.9334 68.7946C36.7823 68.936 37.6312 68.7946 38.3386 68.0872C39.046 67.3798 39.4704 66.2479 39.6119 65.2576C39.6119 65.1161 39.3289 65.2576 39.3289 65.2576C39.046 66.2479 39.046 67.2383 39.046 68.3701H39.1875C40.1778 67.6627 41.5926 67.6627 42.583 66.9553C42.7244 66.8138 42.4415 66.8138 42.4415 66.9553C41.4511 67.6627 40.0363 67.6627 39.046 68.3701H39.1875C39.1875 67.3798 39.1875 66.3894 39.4704 65.3991C39.3289 65.3991 39.3289 65.3991 39.1875 65.3991C39.046 66.5309 38.6215 67.9457 37.4897 68.5116C37.2068 68.6531 36.7823 68.7946 36.4994 68.7946C36.3579 68.7946 36.0749 68.7946 36.2164 68.6531C36.3579 68.5116 36.3579 68.5116 36.4994 68.3701C36.7823 67.9457 37.2068 67.5212 37.4897 67.0968C37.3482 67.0968 37.3482 67.0968 37.2068 67.0968C37.2068 67.2383 37.2068 67.3798 37.2068 67.3798C37.2068 67.3798 37.3482 67.3798 37.3482 67.2383C35.9334 67.2383 34.5187 67.2383 33.2453 67.5212C33.1039 67.5212 33.1039 67.6627 33.2453 67.6627C33.9527 67.6627 34.9431 67.9457 35.509 68.3701C35.509 68.3701 35.792 68.3701 35.792 68.2286C35.792 68.2286 35.6505 68.2286 35.509 68.2286C35.3675 68.3701 35.3675 68.5116 35.3675 68.6531C35.3675 68.7946 35.3675 69.219 35.2261 69.219C35.3675 69.219 35.3675 69.219 35.509 69.219C35.509 69.219 35.509 69.219 35.3675 69.219C35.226 69.219 34.9431 69.219 34.8016 69.219C34.6601 69.219 34.5187 69.219 34.3772 69.0775V68.6531C34.3772 68.0872 34.2357 67.6627 34.0942 67.0968C34.0942 66.6724 33.9527 66.2479 33.9527 65.8235H33.6698C33.6698 66.6724 33.5283 67.5212 33.2453 68.2286C32.8209 69.0775 32.1135 69.6434 31.4061 70.2093H31.5476C31.5476 69.6434 31.4061 69.219 31.4061 68.6531C31.2646 68.0872 31.5476 67.6627 31.972 67.2383C31.8306 67.2383 31.8306 67.2383 31.6891 67.2383C31.5476 67.8042 31.2646 68.6531 30.6987 69.0775C30.2743 69.3605 29.7084 69.6434 29.2839 69.9264C29.4254 69.9264 29.4254 69.9264 29.5669 69.9264C29.5669 68.936 29.9913 68.2286 30.5572 67.5212H30.4158C31.5476 67.5212 30.2743 68.0872 30.6987 68.5116C31.1232 68.936 31.4061 68.7946 31.2646 68.7946Z" fill="#C6794D"/>
<path d="M47.1102 82.2351L29.4254 100.344L105.541 103.033L99.033 82.2351H47.1102Z" fill="#6EA5BA"/>
<path d="M29.4254 100.203C29.4254 100.203 97.9012 99.7784 103.277 101.193C107.239 102.184 107.522 112.795 107.522 112.795C107.522 112.795 107.239 125.103 102.853 125.528C98.4671 125.952 29.1424 125.669 29.1424 125.669C29.1424 125.669 33.3868 119.303 33.5282 113.502C33.3868 107.701 29.4254 100.203 29.4254 100.203Z" fill="#2B4F68"/>
<path d="M30.4157 102.325C30.4157 102.325 93.6568 101.901 98.6086 103.174C102.428 104.023 102.57 112.794 102.57 112.794C102.57 112.794 102.287 123.122 98.1841 123.405C94.0812 123.688 30.1328 123.547 30.1328 123.547C30.1328 123.547 31.8305 120.01 31.8305 112.936C31.972 105.296 30.4157 102.325 30.4157 102.325Z" fill="#FFF2E9"/>
<path d="M41.3096 96.5245C37.3482 97.9393 33.1038 98.5052 29.4254 100.344C30.8401 103.033 31.689 106.711 31.5475 110.389C31.5475 110.389 57.0137 106.004 73.8497 105.296C87.8562 104.73 98.4671 102.042 105.4 104.306C105.824 101.476 103.56 98.6467 102.004 96.5245H41.3096Z" fill="#E8E1EF"/>
<path d="M44.2806 107.701C44.2806 107.701 45.1295 107.701 46.5443 107.701C47.2517 107.701 48.242 107.701 49.2324 107.701C49.7983 107.701 50.3642 107.701 50.9301 107.701C51.4961 107.701 52.062 107.701 52.7694 107.701C54.0427 107.701 55.4575 107.701 56.8723 107.701C58.2871 107.701 59.8433 107.701 61.3996 107.701C62.2485 107.701 62.9559 107.701 63.8047 107.701C64.2292 107.701 64.6536 107.701 65.078 107.701C65.5025 107.701 65.9269 107.701 66.3514 107.701C67.2002 107.701 68.0491 107.701 68.898 107.701C69.0395 107.701 69.3224 107.701 69.4639 107.701H69.7468H70.0298C70.4542 107.701 70.8787 107.701 71.3031 107.701C73.0009 107.701 74.6986 107.843 76.3964 107.843C78.0941 107.984 79.6504 107.984 81.2066 107.984C81.6311 107.984 82.0555 107.984 82.3385 107.984C82.7629 107.984 83.0459 107.984 83.4703 107.984C84.1777 107.984 85.0266 107.984 85.734 107.984C87.1488 107.984 88.5635 107.984 89.8369 107.984C91.1102 107.984 92.242 107.984 93.2324 107.984C94.2227 107.984 95.2131 107.984 95.9205 107.984C97.3352 107.984 98.1841 107.984 98.1841 107.984C98.1841 107.984 97.3352 107.984 95.9205 108.126C95.2131 108.126 94.2227 108.126 93.2324 108.267C92.242 108.267 91.1102 108.267 89.8369 108.409C88.5635 108.409 87.1488 108.409 85.734 108.409C85.0266 108.409 84.3192 108.409 83.4703 108.409C82.7629 108.409 81.914 108.409 81.2066 108.409C79.6504 108.409 77.9526 108.409 76.2549 108.267C74.5571 108.267 72.8594 108.126 71.1616 108.126C70.7372 108.126 70.3128 108.126 69.8883 108.126H69.6054H69.3224C69.1809 108.126 68.898 108.126 68.7565 108.126C67.9076 108.126 67.0587 108.126 66.2099 108.126C65.7854 108.126 65.361 108.126 64.9366 108.126C64.5121 108.126 64.0877 108.126 63.6633 108.126C62.8144 108.126 62.107 108.126 61.2581 108.126C60.8337 108.126 60.4092 108.126 60.1263 108.126C59.7018 108.126 59.4189 108.126 58.9944 108.126C58.2871 108.126 57.4382 108.126 56.7308 108.126C55.316 108.126 53.9012 108.126 52.6279 108.126C51.3546 108.126 50.2228 108.126 49.2324 108.126C48.242 108.126 47.2517 108.126 46.5443 108.126C45.1295 107.701 44.2806 107.701 44.2806 107.701Z" fill="#C6794D"/>
<path d="M132.422 83.6498L131.007 76.8588L124.358 78.2736L127.612 88.8845L132.422 83.6498Z" fill="#A33C00"/>
<path d="M126.48 85.489C126.48 85.489 126.056 104.872 110.776 112.653C93.5154 121.425 70.1713 111.804 68.6151 112.511C67.0588 113.219 64.9366 115.341 65.7855 116.614C66.6344 117.888 70.1713 126.376 85.0266 131.611C100.023 136.846 137.657 132.601 139.779 98.9295C140.486 88.3186 131.856 82.5179 131.856 82.5179L126.48 85.489Z" fill="#FCC107"/>
<path d="M66.2099 114.634C65.361 115.483 65.361 115.907 65.7854 116.614C66.6343 117.888 70.1713 126.235 85.0266 131.47C100.023 136.704 137.657 132.46 139.637 98.9295C140.203 88.4601 131.715 82.6594 131.715 82.6594L129.734 83.7913C129.734 83.7913 141.335 109.965 114.313 123.547C90.8272 135.573 66.7758 114.068 66.2099 114.634Z" fill="#F2A718"/>
<path d="M107.38 118.029C106.248 115.341 101.297 119.303 93.7983 119.444C86.4414 119.586 82.0555 118.737 82.0555 118.737C82.0555 118.737 87.9977 121.425 93.2324 122.415C101.721 123.971 109.078 121.849 107.38 118.029Z" fill="#FFDD01"/>
<path d="M110.351 100.061L118.133 88.8846C118.133 88.8846 118.416 86.1965 118.416 82.0937C118.416 78.1322 117.425 74.4538 117.425 74.4538L108.795 86.7625L110.351 100.061Z" fill="#A44AA0"/>
<path d="M39.4704 86.3379C39.4704 86.3379 105.683 86.055 108.795 86.9039C111.2 87.4698 111.342 93.8363 111.342 93.8363C111.342 93.8363 111.2 101.193 108.512 101.476C105.824 101.759 39.4704 101.618 39.4704 101.618C39.4704 101.618 39.4704 101.618 41.3096 93.9778C42.1585 90.5823 39.4704 86.3379 39.4704 86.3379Z" fill="#A44AA0"/>
<path d="M39.4704 87.6113C39.4704 87.6113 103.136 87.4698 106.248 88.1772C108.512 88.7431 108.654 93.8364 108.654 93.8364C108.654 93.8364 108.512 99.9199 105.965 100.203C103.56 100.344 39.4704 100.203 39.4704 100.203C39.4704 100.203 40.8852 98.3637 41.3096 93.9778C41.7341 88.8846 39.4704 87.6113 39.4704 87.6113Z" fill="#FFE7D4"/>
<path d="M39.4704 86.338L63.6633 74.4538L117.567 74.5953L108.937 86.9039L39.4704 86.338Z" fill="#CC75CC"/>
<path d="M108.937 86.9039L117.567 74.5953L115.02 74.4538L105.965 86.7625L108.937 86.9039Z" fill="#E3B0EA"/>
<path d="M51.9205 91.997C51.9205 91.997 52.7694 91.997 54.1842 91.997C54.8916 91.997 55.8819 91.997 56.8723 91.997C57.4382 91.997 58.0041 91.997 58.57 91.997C59.136 91.997 59.7019 91.997 60.4093 91.997C61.6826 91.997 63.0974 91.997 64.5122 91.997C65.9269 91.997 67.4832 91.997 69.0395 91.997C69.8884 91.997 70.5958 91.997 71.4446 91.997C71.8691 91.997 72.2935 91.997 72.7179 91.997C73.1424 91.997 73.5668 91.997 73.9912 91.997C74.8401 91.997 75.689 91.997 76.5379 91.997C76.6793 91.997 76.9623 91.997 77.1038 91.997H77.3867H77.6697C78.0941 91.997 78.5186 91.997 78.943 91.997C80.6408 91.997 82.3385 92.1385 84.0363 92.1385C85.734 92.28 87.2903 92.28 88.8465 92.28C89.271 92.28 89.6954 92.28 89.9784 92.28C90.4028 92.28 90.6858 92.28 91.1102 92.28C91.8176 92.28 92.6665 92.28 93.3739 92.28C94.7887 92.28 96.2034 92.28 97.4767 92.28C98.7501 92.28 99.8819 92.28 100.872 92.28C101.863 92.28 102.853 92.28 103.56 92.28C104.975 92.28 105.824 92.28 105.824 92.28C105.824 92.28 104.975 92.28 103.56 92.4215C102.853 92.4215 101.863 92.4215 100.872 92.563C99.8819 92.563 98.7501 92.563 97.4767 92.7044C96.2034 92.7044 94.7887 92.7044 93.3739 92.7044C92.6665 92.7044 91.9591 92.7044 91.1102 92.7044C90.4028 92.7044 89.5539 92.7044 88.8465 92.7044C87.2903 92.7044 85.5925 92.7044 83.8948 92.563C82.197 92.563 80.4993 92.4215 78.8015 92.4215C78.3771 92.4215 77.9527 92.4215 77.5282 92.4215H77.2453H76.9623C76.8208 92.4215 76.5379 92.4215 76.3964 92.4215C75.5475 92.4215 74.6986 92.4215 73.8498 92.4215C73.4253 92.4215 73.0009 92.4215 72.5765 92.4215C72.152 92.4215 71.7276 92.4215 71.3031 92.4215C70.4543 92.4215 69.7469 92.4215 68.898 92.4215C68.4736 92.4215 68.0491 92.4215 67.7662 92.4215C67.3417 92.4215 67.0588 92.4215 66.6343 92.4215C65.9269 92.4215 65.0781 92.4215 64.3707 92.4215C62.9559 92.4215 61.5411 92.4215 60.2678 92.4215C58.9945 92.4215 57.8626 92.4215 56.8723 92.4215C55.8819 92.4215 54.8916 92.4215 54.1842 92.4215C52.7694 91.8556 51.9205 91.997 51.9205 91.997Z" fill="#C6794D"/>
<path d="M106.248 87.8943C107.38 91.7142 108.229 96.8075 106.107 100.344C107.663 100.061 108.229 96.9489 108.512 95.5342C108.795 93.412 108.654 90.7239 107.663 89.0261C107.239 88.7432 106.248 87.8943 106.248 87.8943Z" fill="#C6794D"/>
<path d="M51.6376 107.56C50.2228 108.833 46.9688 115.483 48.525 119.161C48.808 118.737 50.2228 118.171 50.6472 117.746C51.2131 118.171 53.6183 118.737 54.1842 119.161C52.7694 114.351 55.8819 108.267 57.2967 107.418H51.6376V107.56Z" fill="#6EA5BA"/>
<path opacity="0.2" d="M53.7598 119.02C53.6183 113.36 53.4768 111.238 57.0138 107.843C56.5893 107.701 55.599 107.418 55.1746 107.56C53.1939 111.238 52.2035 114.917 53.3353 118.595L53.7598 119.02Z" fill="#530254"/>
<path opacity="0.3" d="M62.6729 78.8396C80.0748 78.9811 104.409 78.8396 104.409 78.8396L115.02 74.4538L74.2742 75.1612L62.6729 78.8396Z" fill="#ED8707"/>
<path d="M66.3514 70.4922L62.39 78.698L63.5218 79.2639L69.6054 73.0389L66.3514 70.4922Z" fill="#E8E1EF"/>
<path d="M101.014 70.4922L104.975 78.698L103.985 79.2639L97.7597 73.0389L101.014 70.4922Z" fill="#E8E1EF"/>
<path opacity="0.4" d="M63.0974 78.8396L67.4832 71.9071L69.6054 73.0389L63.5218 79.264L63.0974 78.8396Z" fill="#797085"/>
<path opacity="0.4" d="M104.409 78.8396L100.023 71.9071L97.9012 73.0389L103.985 79.264L104.409 78.8396Z" fill="#797085"/>
<path d="M84.1778 20.6918H83.046V25.7851H84.1778V20.6918Z" fill="#797085"/>
<path d="M86.5829 21.5407C86.5829 22.1066 86.0169 22.6725 85.451 22.6725H81.7726C81.2067 22.6725 80.6407 22.1066 80.6407 21.5407C80.6407 20.9748 81.2067 20.4088 81.7726 20.4088H85.451C86.0169 20.2674 86.5829 20.8333 86.5829 21.5407Z" fill="#797085"/>
<path d="M109.828 57.3161C113.193 42.8561 104.199 28.4056 89.7394 25.04C75.2794 21.6745 60.8289 30.6682 57.4634 45.1282C54.0978 59.5882 63.0916 74.0386 77.5515 77.4042C92.0115 80.7698 106.462 71.776 109.828 57.3161Z" fill="#2B4F68"/>
<path d="M107.805 50.9683C107.805 64.1258 97.0523 74.8782 83.8948 74.8782C70.7373 74.8782 59.9849 64.1258 59.9849 50.9683C59.9849 37.8107 70.7373 27.0583 83.8948 27.0583C97.0523 27.0583 107.805 37.8107 107.805 50.9683Z" fill="#E8E1EF"/>
<path d="M103.898 55.9563C106.51 44.7711 99.5598 33.5864 88.3746 30.9744C77.1895 28.3625 66.0047 35.3125 63.3928 46.4976C60.7808 57.6828 67.7308 68.8675 78.916 71.4795C90.1011 74.0914 101.286 67.1414 103.898 55.9563Z" fill="#FFF2E9"/>
<path opacity="0.3" d="M97.4767 28.1901C97.4767 28.1901 104.409 33.2833 106.107 36.5373C107.946 39.7913 109.785 45.1675 109.785 45.1675L72.7179 75.8685C72.7179 75.8685 65.078 71.1997 62.8144 68.2286C60.4092 65.1161 58.0041 59.1739 58.0041 59.1739L97.4767 28.1901Z" fill="white"/>
<path d="M102.995 50.9685C102.995 51.5346 102.571 51.9592 102.004 51.9592C101.438 51.9592 101.014 51.5346 101.014 50.9685C101.014 50.4024 101.438 49.9778 102.004 49.9778C102.571 49.9778 102.995 50.4024 102.995 50.9685Z" fill="#530254"/>
<path d="M66.7765 50.9685C66.7765 51.5346 66.3519 51.9592 65.7858 51.9592C65.2197 51.9592 64.7951 51.5346 64.7951 50.9685C64.7951 50.4024 65.2197 49.9778 65.7858 49.9778C66.3519 49.9778 66.7765 50.4024 66.7765 50.9685Z" fill="#530254"/>
<path d="M83.8951 32.5759C84.4612 32.5759 84.8858 33.0005 84.8858 33.5666C84.8858 34.1327 84.4612 34.5573 83.8951 34.5573C83.329 34.5573 82.9044 34.1327 82.9044 33.5666C82.9044 33.0005 83.329 32.5759 83.8951 32.5759Z" fill="#530254"/>
<path d="M83.8951 68.6531C84.4612 68.6531 84.8858 69.0777 84.8858 69.6438C84.8858 70.2099 84.4612 70.6345 83.8951 70.6345C83.329 70.6345 82.9044 70.2099 82.9044 69.6438C82.9044 69.0777 83.329 68.6531 83.8951 68.6531Z" fill="#530254"/>
<path d="M93.3744 34.8397C93.6574 35.2643 93.6574 35.8304 93.2328 36.1135C92.8083 36.3965 92.2422 36.3965 91.9591 35.9719C91.6761 35.5474 91.6761 34.9812 92.1006 34.6982C92.5252 34.2736 93.0913 34.4151 93.3744 34.8397Z" fill="#530254"/>
<path d="M75.5481 66.2481C75.8311 66.6727 75.8311 67.2388 75.4066 67.5218C74.982 67.8049 74.4159 67.8049 74.1328 67.3803C73.8498 66.9557 73.8498 66.3896 74.2743 66.1066C74.6989 65.8235 75.265 65.8235 75.5481 66.2481Z" fill="#530254"/>
<path d="M69.0401 59.4571C69.3231 59.8817 69.3231 60.4478 68.8986 60.7308C68.474 61.0139 67.9079 61.0139 67.6248 60.5893C67.3418 60.1647 67.3418 59.5986 67.7664 59.3156C68.0494 59.0325 68.6155 59.0325 69.0401 59.4571Z" fill="#530254"/>
<path d="M93.5159 66.2481C93.7989 66.6727 93.7989 67.2388 93.3743 67.5219C92.9498 67.8049 92.3836 67.8049 92.1006 67.3803C91.8175 66.9557 91.8175 66.3896 92.2421 66.1066C92.6667 65.682 93.2328 65.8235 93.5159 66.2481Z" fill="#530254"/>
<path d="M100.307 59.4571C100.59 59.8817 100.59 60.4478 100.165 60.7308C99.7407 61.0139 99.1746 61.0139 98.8915 60.5893C98.6085 60.1647 98.6085 59.5986 99.0331 59.3156C99.3161 59.0325 99.8822 59.0325 100.307 59.4571Z" fill="#530254"/>
<path d="M100.307 41.3478C100.59 41.7724 100.59 42.3385 100.165 42.6215C99.7407 42.9046 99.1746 42.9046 98.8915 42.48C98.6085 42.0554 98.6085 41.4893 99.0331 41.2062C99.3161 40.9232 99.8822 40.9232 100.307 41.3478Z" fill="#530254"/>
<path d="M75.5481 34.8397C75.8311 35.2643 75.8311 35.8304 75.4066 36.1135C74.982 36.3965 74.4159 36.3965 74.1328 35.9719C73.8498 35.5474 73.8498 34.9812 74.2743 34.6982C74.6989 34.2736 75.265 34.4151 75.5481 34.8397Z" fill="#530254"/>
<path d="M69.0401 41.3478C69.3231 41.7724 69.3231 42.3385 68.8986 42.6215C68.474 42.9046 67.9079 42.9046 67.6248 42.48C67.3418 42.0554 67.3418 41.4893 67.7664 41.2062C68.0494 40.9232 68.6155 40.9232 69.0401 41.3478Z" fill="#530254"/>
<path d="M82.7629 49.6949C82.7629 49.6949 82.0555 40.3573 82.0555 38.2351C82.0555 36.9618 83.4703 34.5566 83.4703 34.5566C83.4703 34.5566 85.0266 36.3959 85.0266 38.2351C85.0266 40.0743 84.1777 49.6949 84.1777 49.6949H82.7629Z" fill="#A44AA0"/>
<path d="M83.3289 48.28C83.3289 48.28 83.046 39.3669 83.046 38.235C83.046 37.3862 83.6119 35.9714 83.6119 35.9714C83.6119 35.9714 84.1778 37.1032 84.1778 38.235C84.1778 39.3669 83.8948 48.28 83.8948 48.28H83.3289Z" fill="#FFF2E9"/>
<path d="M82.3385 51.9586C82.3385 51.9586 75.5475 52.5245 73.5668 52.5245C72.2935 52.5245 69.8884 51.1097 69.8884 51.1097C69.8884 51.1097 71.7276 49.5535 73.5668 49.5535C75.406 49.5535 82.3385 50.5438 82.3385 50.5438V51.9586Z" fill="#A44AA0"/>
<path d="M82.4799 51.6756C82.4799 51.6756 76.1134 51.9585 74.5571 51.9585C73.5668 51.9585 71.7275 51.1097 71.7275 51.1097C71.7275 51.1097 73.1423 50.1193 74.5571 50.1193C75.9719 50.1193 82.4799 50.6852 82.4799 50.6852V51.6756Z" fill="#FFF2E9"/>
<path d="M86.1584 51.2511C86.1584 52.6659 85.0265 53.7977 83.6117 53.7977C82.197 53.7977 81.0651 52.6659 81.0651 51.2511C81.0651 49.8363 82.197 48.7045 83.6117 48.7045C85.0265 48.8459 86.1584 49.9778 86.1584 51.2511Z" fill="#A44AA0"/>
<path d="M85.3096 51.2512C85.3096 52.1001 84.6022 52.8075 83.7533 52.8075C82.9044 52.8075 82.197 52.1001 82.197 51.2512C82.197 50.4023 82.9044 49.6949 83.7533 49.6949C84.6022 49.6949 85.3096 50.4023 85.3096 51.2512Z" fill="#CC75CC"/>
<path d="M64.0877 19.8428C64.0877 19.8428 68.0491 18.4281 69.4639 16.5888C71.5861 13.7592 72.2935 11.92 73.9912 10.7882C76.1134 9.51488 79.6504 8.66601 83.7533 8.80749C87.7147 8.94896 94.0812 9.65636 95.6375 11.4956C97.1938 13.3348 97.1938 14.4666 98.3256 16.3059C99.4575 18.2866 101.863 19.9843 101.863 19.9843L101.438 20.9747C101.438 20.9747 98.75 18.5695 98.0427 17.4377C96.9108 15.74 96.9108 12.7689 94.0812 11.4956C91.2517 10.0808 86.1584 10.0808 83.6118 10.0808C81.2067 10.0808 76.9623 10.2223 74.5572 11.6371C71.5861 13.4763 72.435 14.6081 69.8883 17.0133C68.3321 18.5695 64.9366 20.2673 64.9366 20.2673L64.0877 19.8428Z" fill="#3F6D77"/>
<path d="M64.6539 18.1451C63.9463 18.4282 63.6632 19.2773 63.9463 19.8434L66.3523 18.7112C66.2107 18.1451 65.3616 17.862 64.6539 18.1451Z" fill="#797085"/>
<path d="M68.1906 18.711C68.4736 19.2769 68.3321 19.8428 67.7662 20.1258L64.7951 21.8235C64.2292 22.1065 63.6633 21.965 63.3803 21.3991C63.0974 20.8332 63.2388 20.2673 63.8047 19.9843L66.7758 18.2866C67.2002 18.0036 67.9076 18.2866 68.1906 18.711Z" fill="#797085"/>
<path d="M102.995 18.2867C102.429 17.8621 101.58 18.0036 101.155 18.5697L103.278 20.1265C103.703 19.4189 103.561 18.7112 102.995 18.2867Z" fill="#797085"/>
<path d="M104.126 21.5406C103.843 22.1065 103.136 22.248 102.711 21.965L99.7404 20.1258C99.1745 19.8428 99.033 19.1354 99.316 18.711C99.5989 18.1451 100.306 18.0036 100.731 18.2866L103.702 19.9843C104.268 20.2673 104.551 20.9747 104.126 21.5406Z" fill="#797085"/>
<path d="M68.0491 18.428L63.6633 20.8332C59.7019 22.9554 58.2871 27.9071 60.4093 31.8685C60.4093 31.8685 63.9463 30.7367 69.8884 27.4827C75.972 24.2287 78.943 21.8235 78.943 21.8235C76.8208 17.7206 71.8691 16.3058 68.0491 18.428Z" fill="#6EA5BA"/>
<path opacity="0.4" d="M68.0492 18.428L67.0588 18.9939C70.0299 18.5695 71.1617 21.965 70.1713 23.9457C68.898 26.6338 63.6633 29.4634 59.7019 30.4537C59.8434 30.8782 60.1263 31.4441 60.2678 31.8685C60.2678 31.8685 63.8048 30.7367 69.7469 27.4827C75.8305 24.2287 78.8016 21.8235 78.8016 21.8235C76.8209 17.7206 71.8691 16.3058 68.0492 18.428Z" fill="#3F6D77"/>
<path opacity="0.5" d="M67.0588 20.6917C65.361 20.1258 62.9559 21.965 61.9655 23.3798C61.1167 24.5116 60.2678 27.0583 62.5315 26.6338C64.0877 26.3509 65.5025 24.9361 66.6343 23.9457C67.2003 23.5213 68.7565 21.2576 67.0588 20.6917Z" fill="white"/>
<path d="M103.843 20.5503L99.4574 18.1451C95.496 16.0229 90.6857 17.4377 88.5635 21.3991C88.5635 21.3991 91.3931 23.6628 97.4767 26.9168C103.56 30.1708 107.239 31.4441 107.239 31.4441C109.219 27.6242 107.663 22.6725 103.843 20.5503Z" fill="#6EA5BA"/>
<path opacity="0.4" d="M103.843 20.5502L102.853 19.9843C104.834 22.248 102.57 25.0776 100.448 25.3605C97.6182 25.785 92.242 22.8139 89.4124 20.1258C89.1295 20.5502 88.8465 20.9747 88.5635 21.3991C88.5635 21.3991 91.3931 23.6628 97.4767 26.9168C103.56 30.1708 107.239 31.4441 107.239 31.4441C109.219 27.4827 107.663 22.6724 103.843 20.5502Z" fill="#3F6D77"/>
<path opacity="0.5" d="M101.438 21.1161C101.014 19.4184 98.1842 18.428 96.3449 18.2865C94.9301 18.145 92.3835 18.8524 93.9398 20.5502C94.9301 21.682 97.0523 22.2479 98.4671 22.5309C99.1745 22.6724 101.863 22.8139 101.438 21.1161Z" fill="white"/>
<path d="M32.2549 82.9425L40.6021 84.4988H41.734V80.6788H40.6021L32.2549 82.2351V82.9425Z" fill="#FFCF9C"/>
<path d="M32.2549 82.9425L41.734 83.7914V81.5277L32.2549 82.2351V82.9425Z" fill="#ECBA84"/>
<path d="M41.451 83.5084L33.8112 82.801L32.2549 83.0839L40.8851 84.6402L41.451 84.4987V83.5084Z" fill="#C6794D"/>
<path d="M33.9527 83.2255L30.2742 82.6595L35.226 81.6692L34.5186 82.5181L33.9527 83.2255Z" fill="#A44AA0"/>
<path d="M30.2742 82.6594L34.2356 82.9424L34.0942 83.3668L30.2742 82.6594Z" fill="#530254"/>
<path d="M30.2742 82.5181L34.943 82.0936L35.226 81.6692L30.2742 82.5181Z" fill="#C499C8"/>
<path d="M41.4511 84.4988V83.6499V81.5277C41.4511 81.5277 40.6022 81.5277 40.6022 81.1033C40.6022 80.6788 41.4511 80.6788 41.4511 80.6788H90.8273L91.6761 81.5277V83.3669L90.8273 84.4988H41.4511Z" fill="#FFD26F"/>
<path d="M91.6761 81.5277V83.3669H41.3096C41.3096 83.3669 40.3192 83.2255 40.1777 82.5181C40.1777 81.6692 41.1681 81.5277 41.1681 81.5277H91.6761Z" fill="#FFB901"/>
<path d="M90.8273 84.4987L91.6761 83.3668H41.3096C41.3096 83.3668 40.4608 83.3668 40.4608 83.9327C40.4608 84.4986 41.3096 84.4987 41.3096 84.4987H90.8273Z" fill="#F59100"/>
</svg>
