<svg width="71" height="82" viewBox="0 0 71 82" fill="none" xmlns="http://www.w3.org/2000/svg">
<path d="M62.1729 32.6515L46.6691 29.1058L51.2526 9.66442C51.8593 7.09064 54.4697 5.48854 57.0829 6.08626L63.1232 7.46748C65.7364 8.06504 67.363 10.6361 66.7561 13.2099L62.1729 32.6515Z" fill="white"/>
<path d="M8.72958 32.6516L24.2333 29.106L19.65 9.66442C19.0433 7.09064 16.4329 5.48854 13.8197 6.08626L7.77928 7.46764C5.16607 8.0652 3.53944 10.6363 4.14631 13.2101L8.72958 32.6516Z" fill="white"/>
<path d="M41.7322 4.94838H29.1702L30.4264 -0.000488281H40.4761L41.7322 4.94838Z" fill="white"/>
<path d="M30.4269 14.8453H25.4026V4.80261C25.4024 2.14989 27.5857 -0.000488281 30.2791 -0.000488281H30.4269V14.8453Z" fill="white"/>
<path d="M45.5001 14.8453H40.4757V-0.000488281H40.6236C43.3169 -0.000488281 45.5002 2.14989 45.5002 4.80261V14.8453H45.5001Z" fill="white"/>
<path d="M64.3421 32.0876V61.857H6.56036V32.0876C6.56036 30.2128 6.82559 28.3989 7.32268 26.6818L14.2643 23.1459L20.5053 13.2956C22.0634 12.806 23.7034 12.5003 25.4017 12.4051H25.4034L28.1777 13.4139L30.4264 12.3706H44.3229C55.3786 12.3704 64.3421 21.1989 64.3421 32.0876Z" fill="#FEA301"/>
<path d="M34.0733 12.3706C30.8469 13.9678 23.0678 18.9281 23.0678 29.6345V61.8572H6.56036V32.0878C6.56036 21.199 15.5239 12.3706 26.5795 12.3706H34.0733Z" fill="#FEA301"/>
<path d="M66.8544 59.3628V71.7927C66.8544 77.2379 62.3719 81.6512 56.8449 81.6512H14.0575C8.5306 81.6512 4.04803 77.2379 4.04803 71.7927V59.3628C4.04803 57.8692 4.72372 56.5302 5.78963 55.6281C6.66545 54.8838 7.8065 54.4336 9.05279 54.4336H61.8498C64.6123 54.4336 66.8544 56.6403 66.8544 59.3628Z" fill="#FEA301"/>
<path d="M23.2063 81.6516H14.0575C8.52946 81.6516 4.04803 77.2378 4.04803 71.7931V59.3632C4.04803 57.8695 4.72372 56.5306 5.78963 55.6284L18.3349 61.8574V74.422C18.3349 77.5537 20.0787 80.3479 23.2063 81.6516Z" fill="#FEA301"/>
<path d="M54.4111 74.2284C51.221 74.2284 48.8801 71.2755 49.6538 68.2273L51.8988 59.3826H56.9231L59.1681 68.2273C59.9421 71.2755 57.6012 74.2284 54.4111 74.2284Z" fill="#495560"/>
<path d="M70.6215 59.3923C70.6215 60.0726 70.3412 60.6886 69.8891 61.1339C69.437 61.5808 68.8098 61.8568 68.1192 61.8568H18.3349L13.6272 61.0698V52.0082L23.0678 49.4861H60.5635C66.1188 49.4861 70.6215 53.9208 70.6215 59.3923Z" fill="white"/>
<path d="M16.5365 58.9454C16.5365 60.2451 17.2239 61.1865 18.3349 61.857H2.78345C1.4005 61.857 0.280991 60.7528 0.280991 59.3923C0.280991 56.6566 1.40714 54.1804 3.2271 52.3878C5.04724 50.5951 7.56119 49.4861 10.3389 49.4861H23.0677C23.0678 49.4862 16.5365 52.12 16.5365 58.9454Z" fill="white"/>
<path d="M40.5591 27.2169H30.3435C29.0022 27.2169 27.9147 26.1459 27.9147 24.8248V22.1861C27.9147 20.865 29.0022 19.7939 30.3435 19.7939H40.5591C41.9005 19.7939 42.9879 20.865 42.9879 22.1861V24.8248C42.9879 26.1459 41.9005 27.2169 40.5591 27.2169Z" fill="#68A2DF"/>
<path d="M21.9705 43.7347C24.7177 43.7347 26.9447 41.988 26.9447 39.8333C26.9447 37.6786 24.7177 35.9319 21.9705 35.9319C19.2234 35.9319 16.9964 37.6786 16.9964 39.8333C16.9964 41.988 19.2234 43.7347 21.9705 43.7347Z" fill="white"/>
<path d="M48.9319 43.7347C51.6791 43.7347 53.9061 41.988 53.9061 39.8333C53.9061 37.6786 51.6791 35.9319 48.9319 35.9319C46.1848 35.9319 43.9578 37.6786 43.9578 39.8333C43.9578 41.988 46.1848 43.7347 48.9319 43.7347Z" fill="white"/>
<path d="M40.2743 35.1365C39.5832 35.1365 39.0232 35.6883 39.0232 36.3687C39.0232 36.9988 38.5026 37.5116 37.8629 37.5116C37.223 37.5116 36.7025 36.9988 36.7025 36.3687C36.7025 35.6881 36.1423 35.1365 35.4514 35.1365C34.7605 35.1365 34.2003 35.6883 34.2003 36.3687C34.2003 36.9988 33.6797 37.5116 33.0399 37.5116C32.4002 37.5116 31.8796 36.9988 31.8796 36.3687C31.8796 35.6881 31.3194 35.1365 30.6285 35.1365C29.9376 35.1365 29.3773 35.6883 29.3773 36.3687C29.3773 38.3579 31.0205 39.9761 33.0401 39.9761C33.9632 39.9761 34.8068 39.6374 35.4517 39.0805C36.0965 39.6374 36.9402 39.9761 37.8633 39.9761C39.883 39.9761 41.5261 38.3577 41.5261 36.3687C41.5256 35.6881 40.9654 35.1365 40.2743 35.1365Z" fill="#495560"/>
<path d="M27.484 35.6597C26.7929 35.6597 26.2329 35.108 26.2329 34.4275C26.2329 33.8599 25.7639 33.3981 25.1877 33.3981C24.6114 33.3981 24.1425 33.8599 24.1425 34.4275C24.1425 35.1081 23.5823 35.6597 22.8913 35.6597C22.2004 35.6597 21.6402 35.108 21.6402 34.4275C21.6402 32.5008 23.2317 30.9333 25.1878 30.9333C27.144 30.9333 28.7355 32.5008 28.7355 34.4275C28.7353 35.108 28.1751 35.6597 27.484 35.6597Z" fill="#495560"/>
<path d="M48.0111 35.6597C47.3201 35.6597 46.76 35.108 46.76 34.4275C46.76 33.8599 46.2911 33.3981 45.7148 33.3981C45.1385 33.3981 44.6696 33.8599 44.6696 34.4275C44.6696 35.1081 44.1094 35.6597 43.4185 35.6597C42.7274 35.6597 42.1673 35.108 42.1673 34.4275C42.1673 32.5008 43.7588 30.9333 45.715 30.9333C47.6711 30.9333 49.2626 32.5008 49.2626 34.4275C49.2623 35.108 48.7022 35.6597 48.0111 35.6597Z" fill="#495560"/>
</svg>
