<svg width="138" height="138" viewBox="0 0 138 138" fill="none" xmlns="http://www.w3.org/2000/svg">
<path opacity="0.4" fill-rule="evenodd" clip-rule="evenodd" d="M15.7801 120.123C15.7801 120.123 4.42881 102.207 15.7801 96.8735C15.7801 96.8735 26.7212 93.7279 46.8253 90.0353C46.8253 90.0353 63.3737 80.7355 59.8178 65.8283C59.8178 65.8283 57.6296 13.1745 77.597 6.19963C77.597 6.19963 96.6071 -0.501759 113.292 11.5334C113.292 11.5334 130.114 28.7655 127.105 52.152C127.105 52.152 130.798 79.7781 90.863 120.26C90.863 120.26 60.2281 135.988 42.996 132.842C42.996 132.705 28.3623 134.757 15.7801 120.123Z" fill="#CA92FF"/>
<path d="M29.0461 51.0578C29.0461 51.0578 19.3359 56.3916 18.7889 68.9738C17.8315 88.8044 34.5166 89.7618 34.5166 89.7618V97.2837C34.5166 97.2837 17.2845 93.4544 13.3184 80.4619C6.20669 56.6651 24.9432 44.4932 24.9432 44.4932L29.0461 51.0578Z" fill="#5D5470"/>
<path d="M26.6022 15.7667L13.1495 24.6797L46.5356 75.0702L59.9883 66.1572L26.6022 15.7667Z" fill="#B7C1E2"/>
<path d="M68.8442 86.6162H30.6874V90.4456H68.8442V86.6162Z" fill="#B7C1E2"/>
<path d="M16.7123 8.83468L9.98596 13.2912L43.3721 63.6817L50.0984 59.2252L16.7123 8.83468Z" fill="#B7C1E2"/>
<path d="M52.4326 90.4456H32.8755V113.011H52.4326V90.4456Z" fill="#D3D9ED"/>
<path d="M14.1389 26.4405C14.1389 26.4405 13.3184 25.3463 20.0197 21.2435C24.1226 18.7817 27.5417 17.6876 27.5417 17.6876L30.0034 21.517L15.9169 29.586L14.1389 26.4405Z" fill="#43405A"/>
<path d="M68.8442 89.6249H30.6874V90.9926H68.8442V89.6249Z" fill="#43405A"/>
<path d="M41.7652 73.2134L60.0914 61.0415L32.055 18.645C32.055 18.645 29.183 18.7818 22.3448 23.295C14.9596 28.0817 13.7288 30.8169 13.7288 30.8169L41.7652 73.2134Z" fill="#D3D9ED"/>
<path opacity="0.3" d="M17.1478 26.9876L27.4051 42.1683C27.4051 42.1683 33.1491 52.9726 37.799 49.8271C44.6372 45.1771 23.986 22.748 23.986 22.748L17.1478 26.9876Z" fill="white"/>
<path opacity="0.4" d="M31.6447 18.7817L28.6359 20.9699C28.6359 20.9699 42.7225 36.2873 42.7225 47.7754C42.7225 57.3488 34.1064 61.5885 34.1064 61.5885L41.4916 73.3501L59.8178 61.1782L31.6447 18.7817Z" fill="#7C7091"/>
<path d="M53.8893 51.6379L35.5344 63.7989L41.8038 73.2614L60.1587 61.1003L53.8893 51.6379Z" fill="#43405A"/>
<path d="M27.405 51.6048C27.405 51.6048 17.6948 56.9386 17.1478 69.5208C16.1904 89.3514 32.8755 90.3088 32.8755 90.3088V97.8307C32.8755 97.8307 15.6434 94.0014 11.6773 81.0089C4.56558 57.2121 23.3021 45.0402 23.3021 45.0402L27.405 51.6048Z" fill="#D3D9ED"/>
<path d="M18.7891 48.049C18.7891 52.0152 22.0714 55.2975 26.0375 55.2975C30.0036 55.2975 33.2859 52.0152 33.2859 48.049C33.2859 44.0829 30.0036 40.8006 26.0375 40.8006C21.9346 40.8006 18.7891 43.9461 18.7891 48.049Z" fill="#43405A"/>
<path d="M21.3875 48.049C21.3875 50.6475 23.4389 52.6989 26.0374 52.6989C28.6359 52.6989 30.6873 50.6475 30.6873 48.049C30.6873 45.4505 28.6359 43.399 26.0374 43.399C23.4389 43.399 21.3875 45.4505 21.3875 48.049Z" fill="#44B4A6"/>
<path d="M28.499 93.0442C28.499 95.5059 30.5505 97.5574 33.0122 97.5574C35.4739 97.5574 37.5254 95.5059 37.5254 93.0442C37.5254 90.5825 35.4739 88.531 33.0122 88.531C30.4137 88.531 28.499 90.5825 28.499 93.0442Z" fill="#43405A"/>
<path d="M30.0034 93.0441C30.0034 94.6852 31.2343 95.9161 32.8754 95.9161C34.5166 95.9161 35.7475 94.6852 35.7475 93.0441C35.7475 91.4029 34.5166 90.1721 32.8754 90.1721C31.371 90.1721 30.0034 91.4029 30.0034 93.0441Z" fill="#44B4A6"/>
<path d="M9.89942 13.3113L6.48035 12.4907L16.8743 5.65253L16.7376 8.93484L9.89942 13.3113Z" fill="#43405A"/>
<path opacity="0.5" d="M11.2668 12.6274L17.8315 21.3803L19.3359 20.2861L13.7286 10.9863L11.2668 12.6274Z" fill="white"/>
<path opacity="0.5" d="M49.287 90.4456C49.287 90.4456 51.065 101.523 46.415 105.9C42.996 109.182 32.8755 108.088 32.8755 108.088V111.37H52.4326V90.4456H49.287Z" fill="#7C7091"/>
<path d="M68.8442 110.96H13.4552V114.789H68.8442V110.96Z" fill="#43405A"/>
<path d="M15.5066 57.2122C15.5066 58.1695 16.3272 58.9901 17.2845 58.9901C18.2419 58.9901 19.0624 58.1695 19.0624 57.2122C19.0624 56.2549 18.2419 55.4343 17.2845 55.4343C16.3272 55.2975 15.5066 56.1181 15.5066 57.2122Z" fill="#43405A"/>
<path d="M16.1904 57.2126C16.1904 57.8966 16.7377 58.307 17.2849 58.307C17.969 58.307 18.3794 57.7598 18.3794 57.2126C18.3794 56.5285 17.8321 56.1181 17.2849 56.1181C16.7377 55.9813 16.1904 56.5285 16.1904 57.2126Z" fill="#44B4A6"/>
<path d="M39.5768 119.713C39.0298 119.439 37.6621 116.704 37.3886 115.063C37.1151 112.464 37.5254 109.319 39.0298 110.823C36.9783 113.559 39.9871 118.892 40.8077 120.123L39.5768 119.713Z" fill="#A04507"/>
<path d="M119.994 109.319L73.3574 129.013L78.5544 130.791L125.054 109.592L119.994 109.319Z" fill="#ED8707"/>
<path d="M78.5543 131.748L125.054 110.55V109.592L78.5543 130.791V131.748Z" fill="#A04507"/>
<path d="M78.5544 131.748L39.4402 119.576L39.3035 118.755L78.5544 130.791V131.748Z" fill="#DF6409"/>
<path d="M40.124 118.892C40.124 118.892 38.7564 116.431 38.4829 114.653C38.2094 112.738 38.4829 111.507 38.4829 111.507L77.7339 122.995C77.7339 122.995 76.6398 123.816 76.9133 125.867C77.1868 127.919 77.7339 130.38 77.7339 130.38L40.124 118.892Z" fill="#FFE7D4"/>
<path d="M77.05 126.551C77.1868 128.739 77.8706 130.517 77.8706 130.517L123.276 110.003C123.276 110.003 122.592 109.045 122.045 106.857C121.635 105.079 122.319 103.301 122.319 103.301L77.7338 122.448C77.7338 122.448 76.7765 123.952 77.05 126.551Z" fill="#F9D0AF"/>
<path d="M77.7339 122.995L125.054 102.891V102.071L77.7339 121.901V122.995Z" fill="#A04507"/>
<path d="M77.7337 122.995L38.6195 111.37V110.55L77.7337 121.901V122.995Z" fill="#DF6409"/>
<path d="M77.7337 121.901L125.054 102.07L90.7262 95.0955L38.6195 110.55L77.7337 121.901Z" fill="#FFBD33"/>
<g opacity="0.5">
<path d="M81.8367 122.995C81.8367 122.995 82.3837 122.722 83.4778 122.311C84.4352 121.901 85.9396 121.354 87.7175 120.67C88.5381 120.26 89.4954 119.986 90.5895 119.576C91.5468 119.166 92.6409 118.756 93.7351 118.345C94.8292 117.935 95.9233 117.388 97.0174 116.978C98.1115 116.431 99.3423 116.02 100.436 115.473C101.531 114.926 102.761 114.379 103.856 113.832C104.95 113.285 106.044 112.738 107.138 112.328C109.326 111.37 111.241 110.413 113.019 109.592C111.377 110.413 109.326 111.37 107.138 112.328C106.044 112.875 104.95 113.285 103.856 113.832C102.761 114.379 101.667 114.926 100.436 115.473C99.8894 115.747 99.3423 116.02 98.7953 116.294C98.5217 116.431 98.2482 116.567 97.9747 116.704C97.7012 116.841 97.4277 116.978 97.1541 117.114C96.6071 117.388 96.06 117.661 95.513 117.798C94.9659 118.072 94.4189 118.208 93.8718 118.482C92.7777 118.892 91.6836 119.303 90.7263 119.713C90.1792 119.85 89.7689 120.123 89.2219 120.26C88.8116 120.397 88.2645 120.67 87.8542 120.807C87.0337 121.08 86.2131 121.491 85.3925 121.764C84.7087 122.038 84.0249 122.311 83.4778 122.448C82.3837 122.722 81.8367 122.995 81.8367 122.995Z" fill="#C6794D"/>
</g>
<g opacity="0.5">
<path d="M87.3071 121.901C87.3071 121.901 89.085 121.217 91.6835 119.986C92.3674 119.713 93.0512 119.439 93.735 119.029C94.4188 118.756 95.2394 118.345 96.06 118.072C96.8805 117.661 97.7011 117.388 98.5217 116.978C99.3423 116.567 100.3 116.157 101.12 115.884C101.941 115.473 102.898 115.063 103.719 114.789C104.539 114.379 105.36 114.106 106.18 113.695C107.822 113.012 109.326 112.328 110.557 111.781C113.155 110.687 114.933 109.866 114.933 109.866C114.933 109.866 113.155 110.687 110.694 111.781C108.095 113.012 104.676 114.516 101.257 116.02C100.847 116.157 100.436 116.431 100.026 116.567C99.6158 116.704 99.2055 116.978 98.7952 117.114C97.9746 117.525 97.1541 117.798 96.3335 118.209C95.5129 118.619 94.6923 118.892 94.0085 119.166C93.3247 119.439 92.5041 119.713 91.9571 119.986C91.2733 120.26 90.7262 120.533 90.1792 120.67C89.6321 120.944 89.2218 121.081 88.8115 121.217C87.7174 121.764 87.3071 121.901 87.3071 121.901Z" fill="#C6794D"/>
</g>
<g opacity="0.5">
<path d="M81.1528 127.508C81.1528 127.508 81.8366 127.235 82.9308 126.688C83.4778 126.414 84.1616 126.141 84.8454 125.73C85.666 125.32 86.4866 125.047 87.4439 124.5C88.4013 124.089 89.3586 123.542 90.4527 123.132C91.5468 122.585 92.6409 122.175 93.8718 121.628C95.1027 121.08 96.3335 120.533 97.5644 119.986C98.7953 119.439 100.026 118.892 101.394 118.345C102.625 117.798 103.992 117.251 105.223 116.704C106.454 116.157 107.685 115.61 108.916 115.063C111.241 113.969 113.566 113.011 115.344 112.191C119.173 110.55 121.635 109.319 121.635 109.319C121.635 109.319 119.173 110.413 115.344 112.191C113.429 113.011 111.241 114.106 108.916 115.063C107.685 115.61 106.454 116.157 105.223 116.704C103.992 117.251 102.761 117.798 101.394 118.345C100.163 118.892 98.932 119.439 97.5644 119.986C96.3335 120.533 95.1027 121.08 93.8718 121.628C91.5468 122.722 89.2219 123.679 87.4439 124.5C86.4866 124.91 85.666 125.32 84.8454 125.594C84.0249 125.867 83.341 126.277 82.794 126.414C81.8366 127.235 81.1528 127.508 81.1528 127.508Z" fill="#C6794D"/>
</g>
<path d="M45.321 112.464C52.5695 107.267 76.0927 99.4719 90.8631 100.429C93.0513 100.566 97.838 100.84 98.2483 103.712C98.7954 106.857 92.9146 110.55 91.1366 112.054C85.8029 116.294 80.8794 117.798 74.8619 120.67L45.321 112.464Z" fill="#FFD833"/>
<path opacity="0.3" d="M91.1365 112.054C96.8805 112.054 107.138 108.362 107.411 104.532C107.548 101.523 99.0687 101.25 95.9232 102.07L91.1365 112.054Z" fill="#A04507"/>
<path d="M76.5029 96.4632C75.8191 97.9676 75.4088 99.6087 75.4088 101.387C75.4088 105.353 77.3235 108.772 80.1955 110.96C81.1529 112.191 83.8881 112.875 87.1704 112.875C90.316 112.875 93.0512 112.191 94.0086 111.097C97.0174 108.909 99.0688 105.353 99.0688 101.387C99.0688 99.6087 98.6585 97.9676 97.9747 96.4632H76.5029Z" fill="#CC75CC"/>
<path opacity="0.3" d="M97.9746 96.4632H93.1879C93.1879 96.8735 93.3247 97.4205 93.3247 97.8308C93.3247 101.797 91.2732 105.353 88.2645 107.541C87.3071 108.635 84.5719 109.319 81.4263 109.319C80.3322 109.319 79.2381 109.182 78.2808 109.045C78.8278 109.729 79.5116 110.413 80.3322 110.96C81.2895 112.191 84.0248 112.875 87.3071 112.875C90.4527 112.875 93.1879 112.191 94.1453 111.097C97.1541 108.909 99.2055 105.353 99.2055 101.387C99.0687 99.6087 98.6584 97.8308 97.9746 96.4632Z" fill="#530254"/>
<path d="M97.9749 96.3264C97.9749 97.5572 93.1882 98.6513 87.3074 98.6513C81.4266 98.6513 76.6399 97.5572 76.6399 96.3264C76.6399 95.0955 81.4266 94.0014 87.3074 94.0014C93.1882 94.1382 97.9749 95.0955 97.9749 96.3264Z" fill="#A44AA0"/>
<path d="M87.1705 98.9248C81.6999 98.9248 76.0927 97.9674 76.0927 96.3263C76.0927 94.6851 81.6999 93.7278 87.1705 93.7278C92.641 93.7278 98.2483 94.6851 98.2483 96.3263C98.2483 97.9674 92.641 98.9248 87.1705 98.9248ZM87.1705 94.4116C84.2984 94.4116 81.6999 94.6851 79.6485 95.0954C77.3235 95.6425 76.7765 96.1895 76.7765 96.463C76.7765 96.7366 77.3235 97.2836 79.6485 97.8307C81.6999 98.241 84.2984 98.5145 87.1705 98.5145C90.0425 98.5145 92.641 98.241 94.6924 97.8307C97.0174 97.2836 97.5644 96.7366 97.5644 96.463C97.5644 96.1895 97.0174 95.6425 94.6924 95.0954C92.7777 94.5484 90.0425 94.4116 87.1705 94.4116Z" fill="#E3B0EA"/>
<path d="M93.735 97.8308C93.735 97.8308 90.863 96.4632 87.3071 96.4632C83.7513 96.4632 80.8793 97.8308 80.8793 97.8308C80.8793 97.8308 84.1616 98.3779 87.3071 98.3779C90.7262 98.3779 93.735 97.8308 93.735 97.8308Z" fill="#933D12"/>
<path opacity="0.7" d="M79.1014 99.7454C76.3661 101.113 76.9131 105.079 79.1014 106.037C81.2896 106.994 83.2042 105.079 83.6145 103.028C83.8881 101.66 80.8793 98.9248 79.1014 99.7454Z" fill="#E3B0EA"/>
<path d="M87.1704 98.5145C84.7086 94.0013 83.0675 85.1117 82.2469 78.5471C81.2896 70.6149 80.8793 63.2297 80.8793 60.9047C80.8793 58.443 81.2896 55.9812 81.5631 53.5195C81.9734 50.921 82.3837 48.049 82.2469 45.3137C82.2469 44.6299 82.1101 43.8093 82.1101 43.1255C81.9734 40.3902 81.6999 37.3815 82.3837 34.6462C82.794 32.8683 83.6145 31.0904 84.5719 29.3124C85.2557 27.9448 85.9395 26.5772 86.3498 25.3463L86.8968 25.4831C86.4866 26.8507 85.8027 28.0816 85.1189 29.586C84.2983 31.3639 83.4778 33.1418 83.0675 34.783C82.3837 37.3815 82.6572 40.2535 82.794 42.9887C82.794 43.6726 82.9307 44.4931 82.9307 45.3137C83.0675 48.049 82.6572 50.921 82.2469 53.5195C81.8366 55.8445 81.4263 58.3062 81.5631 60.7679C81.6999 66.6487 83.341 90.172 87.8542 98.1042L87.1704 98.5145Z" fill="#104414"/>
<path d="M86.0763 27.1244C84.5719 19.0554 88.9483 16.3202 92.0939 15.0893C92.0939 15.0893 93.5983 19.876 91.8204 22.6113C89.2219 26.5774 86.0763 27.1244 86.0763 27.1244Z" fill="#7DB538"/>
<path d="M86.0763 27.2612C85.3925 23.5686 85.8027 20.6966 87.3071 18.5084C88.4012 17.004 89.9056 15.9099 92.0938 14.9525H92.2306V15.0893C92.2306 15.226 93.735 20.0127 91.9571 22.748C89.3586 26.5774 86.3498 27.2612 86.0763 27.2612ZM92.0938 15.226C87.1704 17.2775 85.2557 21.1068 86.213 26.8509C86.7601 26.7141 89.4953 25.7568 91.6836 22.4745C93.3247 20.1495 92.2306 16.0466 92.0938 15.226Z" fill="#234F1B"/>
<path d="M72.4001 46.2713C75.1353 43.536 81.5632 49.8271 81.7 55.1609C81.5632 54.477 82.5205 52.4256 82.247 51.4683C81.9735 50.3742 80.0588 46.8183 79.375 45.7242C77.3235 42.3051 76.0927 41.211 71.853 41.7581L72.4001 46.2713Z" fill="#2E6525"/>
<path d="M81.4264 55.024C81.4264 54.8872 81.4264 54.8872 81.4264 54.7504C81.2896 52.8357 80.3323 50.5108 78.6911 48.5961C77.1867 46.8182 75.272 45.5873 73.9044 45.5873C73.3573 45.5873 72.8103 45.8608 72.4 46.2711L72.2632 46.4079L71.7162 41.4844H71.8529C72.5368 41.3477 73.2206 41.3477 73.7676 41.3477C76.6397 41.3477 77.7338 42.7153 79.5117 45.4505C80.1955 46.5446 81.9734 50.2372 82.3837 51.3314C82.5205 51.8784 82.2469 52.699 82.1102 53.5196C81.9734 53.9299 81.8366 54.4769 81.8366 54.7504C81.8366 54.8872 81.8366 54.8872 81.8366 55.024H81.4264ZM73.9044 45.4505C75.4088 45.4505 77.1867 46.5447 78.8279 48.4593C80.1955 50.1005 81.2896 52.1519 81.5631 53.9299C81.5631 53.7931 81.6999 53.6563 81.6999 53.5196C81.8366 52.8357 82.1102 51.8784 81.9734 51.4681C81.6999 50.374 79.7852 46.8182 79.1014 45.7241C77.4602 42.9888 76.3661 41.7579 73.6309 41.7579C73.0838 41.7579 72.5368 41.7579 71.9897 41.8947L72.5368 46.1344C72.9471 45.5873 73.3573 45.4505 73.9044 45.4505Z" fill="#14300E"/>
<path d="M79.7855 47.2286C76.3664 39.1596 73.3576 48.5962 69.5283 49.2801C64.7415 50.1006 60.6387 45.3139 56.5358 47.0918C59.8181 43.2625 61.8695 36.4243 68.0239 37.1081C72.8106 37.6552 78.9649 44.2198 78.9649 44.2198L79.7855 47.2286Z" fill="#6E953F"/>
<path d="M68.4339 49.5534C66.5192 49.5534 64.7413 48.8696 63.1002 48.1858C61.459 47.502 59.9546 46.9549 58.4502 46.9549C57.7664 46.9549 57.2194 47.0917 56.6723 47.3652L56.1252 47.502L56.3988 47.0917C57.2193 46.1344 58.0399 44.9035 58.8605 43.6726C60.9119 40.3903 63.1002 36.9713 67.203 36.9713C67.4766 36.9713 67.7501 36.9713 68.0236 36.9713C72.8103 37.5183 78.8279 43.8094 79.1014 44.0829L79.922 47.2285L79.6485 47.3652C78.6911 45.177 77.8706 44.0829 76.7765 44.0829C75.6823 44.0829 74.5882 45.3138 73.3574 46.5447C72.1265 47.7755 70.8956 49.1432 69.528 49.4167C69.1177 49.4167 68.7074 49.5534 68.4339 49.5534ZM58.4502 46.5447C59.9546 46.5447 61.459 47.2285 63.1002 47.7755C64.7413 48.4593 66.5192 49.1432 68.4339 49.1432C68.8442 49.1432 69.1177 49.1432 69.528 49.0064C70.8956 48.7329 72.1265 47.502 73.2206 46.2711C74.4515 45.0403 75.6823 43.8094 76.7765 43.8094C77.7338 43.8094 78.4176 44.4932 79.2382 45.8608L78.8279 44.0829C78.4176 43.6726 72.5368 37.5183 68.0236 37.108C67.7501 37.108 67.4766 37.108 67.203 37.108C63.2369 37.108 61.1855 40.3903 58.9973 43.6726C58.3134 44.7667 57.6296 45.8608 56.8091 46.8182C57.3561 46.6814 57.9032 46.5447 58.4502 46.5447Z" fill="#234F1B"/>
<path d="M67.7501 37.9286C63.9208 37.3815 61.8693 41.6212 59.8179 44.4932C61.459 43.6726 64.331 46.1344 66.7928 44.7667C68.4339 43.9462 70.6221 38.3389 72.4001 39.433C72.4001 39.433 68.981 38.0654 67.7501 37.9286Z" fill="#85B539"/>
<path d="M78.691 43.9462C77.1866 38.4757 75.5454 31.6375 82.5203 29.1758C82.5203 33.5522 82.1101 36.4242 79.5116 40.2536L78.691 43.9462Z" fill="#6E953F"/>
<path d="M78.691 44.4932L78.5543 43.9462C77.8704 41.3477 77.0499 38.2021 77.3234 35.4669C77.5969 32.3213 79.3748 30.2699 82.5204 29.1758H82.6572V29.3125C82.6572 33.9625 82.1101 36.6977 79.6484 40.3903L78.691 44.4932ZM82.2469 29.3125C75.6822 31.6375 77.1866 38.3389 78.5543 43.3991L79.2381 40.1168C81.8366 36.561 82.2469 33.8257 82.2469 29.3125Z" fill="#234F1B"/>
<path d="M78.1441 41.4847C76.6397 38.3391 74.3148 34.9201 73.0839 31.501C71.853 27.8084 73.0839 24.9364 73.4942 21.107C74.5883 23.5687 78.2809 26.4408 79.1015 29.0392C80.4691 33.4157 78.1441 41.4847 78.1441 41.4847Z" fill="#7DB538"/>
<path d="M78.2808 41.8947L78.144 41.6212C77.5969 40.3903 76.9131 39.1595 76.0926 37.7918C74.9984 35.7404 73.7676 33.689 73.0838 31.6375C72.1264 28.9023 72.5367 26.714 72.947 24.2523C73.0838 23.295 73.3573 22.3376 73.3573 21.2435V20.6965L73.4941 21.1068C74.0411 22.2009 74.9984 23.4317 76.0926 24.6626C77.3234 26.167 78.5543 27.6714 79.1013 29.039C80.469 33.2787 78.2808 41.2109 78.144 41.4844L78.2808 41.8947ZM73.6308 21.6538C73.4941 22.6112 73.3573 23.4317 73.2205 24.2523C72.8102 26.714 72.4 28.9023 73.3573 31.5007C74.0411 33.5522 75.272 35.7404 76.3661 37.6551C77.0499 38.8859 77.7337 39.9801 78.2808 41.2109C78.6911 39.7065 80.3322 32.8684 79.1013 29.1758C78.6911 27.8081 77.4602 26.3038 76.2293 24.9361C74.9985 23.7053 74.1779 22.6112 73.6308 21.6538Z" fill="#234F1B"/>
<path d="M81.2897 59.5371C83.6146 58.8532 84.7087 56.2548 86.6234 55.0239C88.6749 53.6563 90.8631 53.1092 93.4616 53.246C91.4101 54.0665 90.7263 56.9386 89.0852 58.443C85.119 62.1356 81.2897 59.5371 81.2897 59.5371Z" fill="#6E953F"/>
<path d="M84.4352 60.6314C82.5206 60.6314 81.2897 59.8108 81.1529 59.674L80.8794 59.5373L81.1529 59.4005C82.5206 58.9902 83.4779 57.8961 84.4352 56.9388C85.1191 56.2549 85.6661 55.5711 86.4867 55.0241C88.2646 53.7932 90.1793 53.2462 92.5042 53.2462C92.7778 53.2462 93.0513 53.2462 93.3248 53.2462H93.8719L93.3248 53.5197C92.094 54.0667 91.4101 55.1608 90.7263 56.3917C90.1793 57.2123 89.769 58.0329 89.0852 58.7167C87.7175 59.9475 86.0764 60.6314 84.4352 60.6314ZM81.5632 59.674C81.9735 59.9475 83.0676 60.3578 84.4352 60.3578C86.0764 60.3578 87.5808 59.674 88.9484 58.4431C89.6322 57.8961 90.0425 57.0755 90.5896 56.2549C91.2734 55.1608 91.8204 54.2035 92.9145 53.5197C92.7778 53.5197 92.7778 53.5197 92.641 53.5197C90.316 53.5197 88.5381 54.0667 86.7602 55.2976C86.0764 55.8447 85.3926 56.5285 84.8455 57.2123C83.7514 58.1696 82.9308 59.127 81.5632 59.674Z" fill="#234F1B"/>
<path d="M82.7941 48.8696C85.2558 45.8608 83.2044 42.5785 83.7514 39.2962C84.1617 36.6977 87.1705 32.1845 89.3587 30.6801C89.4955 30.4066 89.4955 30.4066 89.3587 30.6801C88.8116 37.108 90.5896 42.0314 84.9823 46.9549L82.7941 48.8696Z" fill="#2E6525"/>
<path d="M82.9308 49.0063L82.7941 48.8696C84.2985 46.9549 84.0249 45.0402 83.7514 42.9888C83.6146 41.7579 83.4779 40.527 83.6146 39.2962C84.0249 36.6977 86.897 32.3213 89.2219 30.6801C89.3587 30.5433 89.3587 30.5433 89.4955 30.5433H89.6322C89.6322 30.6801 89.6322 30.6801 89.4955 30.8169C89.3587 32.3213 89.3587 33.8256 89.3587 35.1933C89.3587 39.5697 89.3587 43.2623 85.119 47.0917L82.9308 49.0063ZM89.0852 30.9536C86.897 32.5948 84.1617 36.8344 83.7514 39.2962C83.4779 40.527 83.7514 41.7579 83.8882 42.9888C84.1617 44.7667 84.2985 46.5446 83.3411 48.1858L84.8455 46.9549C88.9484 43.2623 88.9484 39.5697 88.9484 35.33C88.9484 33.8256 88.9484 32.458 89.0852 30.9536Z" fill="#14300E"/>
<path d="M81.0161 61.4518C80.469 57.6224 83.0675 54.7504 84.8455 52.8357C85.3925 52.2886 85.8028 51.7416 86.0763 51.3313L86.4866 51.6048C86.2131 52.0151 85.8028 52.5622 85.2557 53.1092C83.4778 55.0239 81.0161 57.7592 81.5631 61.315L81.0161 61.4518Z" fill="#234F1B"/>
<path d="M83.8882 71.2989C85.8029 69.7945 85.9396 67.0592 87.3073 65.2813C88.8117 63.2299 90.7263 61.999 93.0513 61.3152C91.4101 62.8196 91.8204 65.6916 90.7263 67.743C88.2646 72.5298 83.8882 71.2989 83.8882 71.2989Z" fill="#6E953F"/>
<path d="M84.9823 71.5723C84.2985 71.5723 83.8882 71.4355 83.7514 71.4355H83.4779L83.7514 71.2988C84.8455 70.4782 85.3926 69.1106 85.9396 67.7429C86.2132 66.9224 86.6235 65.965 87.1705 65.1444C88.5381 63.2298 90.4528 61.8621 93.0513 61.0416L93.5984 60.9048L93.1881 61.3151C92.2307 62.1357 91.9572 63.5033 91.6837 64.8709C91.5469 65.8283 91.2734 66.7856 90.8631 67.6062C89.222 71.0252 86.4867 71.5723 84.9823 71.5723ZM84.1617 71.2988C84.2985 71.2988 84.7088 71.2988 84.9823 71.2988C86.3499 71.2988 88.9484 70.7517 90.7263 67.6062C91.1366 66.7856 91.2734 65.8283 91.5469 64.8709C91.8204 63.64 91.9572 62.4092 92.7778 61.4518C90.4528 62.2724 88.8117 63.5033 87.444 65.2812C86.897 65.965 86.6235 66.7856 86.2132 67.7429C85.6661 69.1106 85.2558 70.3414 84.1617 71.2988Z" fill="#234F1B"/>
<path d="M82.2471 68.2901C81.4266 67.743 80.1957 68.2901 79.2383 68.1533C78.1442 68.0165 77.4604 67.3327 76.7766 66.5122C77.5972 66.9224 78.8281 66.1019 79.7854 66.1019C82.1104 66.1019 82.2471 68.2901 82.2471 68.2901Z" fill="#6E953F"/>
<path d="M82.3838 68.5635L82.1103 68.4268C81.8367 68.29 81.5632 68.1532 81.2897 68.1532C81.0162 68.1532 80.7426 68.1532 80.4691 68.29C80.1956 68.29 79.9221 68.4268 79.6485 68.4268C79.5118 68.4268 79.375 68.4268 79.2382 68.4268C78.1441 68.29 77.4603 67.7429 76.6397 66.6488L76.3662 66.2386L76.7765 66.3753C76.9133 66.3753 77.05 66.5121 77.1868 66.5121C77.5971 66.5121 78.0074 66.3753 78.4177 66.2386C78.8279 66.1018 79.2382 65.965 79.6485 65.965C82.1103 65.965 82.247 68.29 82.247 68.4268L82.3838 68.5635ZM77.1868 66.7856C77.7338 67.6062 78.5544 68.0165 79.375 68.1532C79.5118 68.1532 79.6485 68.1532 79.7853 68.1532C80.0588 68.1532 80.3323 68.1532 80.6059 68.0165C80.8794 68.0165 81.1529 67.8797 81.4264 67.8797C81.7 67.8797 81.9735 67.8797 82.247 68.0165C82.1103 67.4694 81.7 66.1018 79.9221 66.1018C79.5118 66.1018 79.1015 66.2386 78.6912 66.3753C78.2809 66.5121 77.8706 66.6488 77.4603 66.6488C77.3236 66.7856 77.1868 66.7856 77.1868 66.7856Z" fill="#234F1B"/>
<path d="M78.828 113.559C80.8794 113.559 82.3838 111.644 84.1618 111.097C86.2132 110.413 88.1279 110.55 90.0426 111.234C88.1279 111.507 87.0338 113.695 85.3926 114.516C81.2897 116.567 78.828 113.559 78.828 113.559Z" fill="#6E953F"/>
<path d="M82.5204 115.336C80.1955 115.336 78.6911 113.695 78.6911 113.695L78.5543 113.558H78.8278C80.0587 113.558 81.0161 112.874 81.9734 112.191C82.6572 111.78 83.341 111.233 84.0248 111.097C84.9822 110.823 85.9395 110.686 86.8969 110.686C87.8542 110.686 88.9483 110.823 90.1792 111.233L90.7262 111.37L90.1792 111.507C89.0851 111.644 88.2645 112.464 87.4439 113.285C86.8969 113.832 86.213 114.379 85.5292 114.789C84.4351 115.063 83.4778 115.336 82.5204 115.336ZM79.1014 113.695C79.5117 114.105 80.7425 115.063 82.5204 115.063C83.4778 115.063 84.4351 114.789 85.3925 114.379C86.0763 113.969 86.6233 113.422 87.1704 112.874C87.8542 112.191 88.6748 111.507 89.6321 111.097C88.6748 110.823 87.8542 110.686 86.8969 110.686C85.9395 110.686 85.1189 110.823 84.1616 111.097C83.4778 111.37 82.794 111.78 82.1102 112.191C81.2896 112.874 80.1955 113.558 79.1014 113.695Z" fill="#234F1B"/>
<path d="M93.5985 50.2374C100.984 45.7242 99.7529 38.339 106.044 37.2449C103.172 33.4156 97.0176 33.4156 93.0515 34.3729C90.7265 35.0567 86.4868 39.1596 85.803 41.4846C83.7516 47.7757 86.6236 50.6477 85.3927 52.4256C85.256 52.4256 89.4956 52.6992 93.5985 50.2374Z" fill="#6E953F"/>
<path d="M85.6661 52.5623C85.3926 52.5623 85.2558 52.5623 85.2558 52.5623H84.9823L85.119 52.4256C85.6661 51.7417 85.3926 50.9212 85.119 49.6903C84.7088 47.7756 84.1617 45.3139 85.3926 41.6213C86.0764 39.4331 90.316 35.0567 92.7778 34.3728C94.2822 33.9626 95.9233 33.8258 97.4277 33.8258C101.257 33.8258 104.266 35.0567 105.907 37.3816L106.044 37.5184H105.907C102.761 38.0654 101.531 40.3904 100.026 42.9889C98.6586 45.4506 97.1542 48.3227 93.5984 50.5109C90.316 52.2888 87.0337 52.5623 85.6661 52.5623ZM85.5293 52.2888C85.5293 52.2888 85.6661 52.2888 85.8029 52.2888C87.0337 52.2888 90.4528 52.0153 93.5984 50.1006C97.1542 47.9124 98.6586 45.1771 100.026 42.5786C101.394 39.9801 102.625 37.6552 105.907 36.9713C103.719 34.0993 99.8894 33.689 97.838 33.689C96.3336 33.689 94.6925 33.8258 93.1881 34.2361C90.7263 34.9199 86.7602 39.1595 85.9396 41.211C84.7088 44.9036 85.2558 47.3653 85.6661 49.1432C85.6661 50.6476 85.9396 51.605 85.5293 52.2888Z" fill="#234F1B"/>
<path d="M103.445 36.2875C101.257 34.7831 96.1968 34.236 93.0513 35.4669C88.5381 37.3816 88.8116 41.6212 87.7175 45.4506C88.9484 42.4418 90.5896 42.1683 93.3248 41.4845C95.7865 40.9374 98.2483 38.4757 99.4791 37.5183C100.163 36.8345 103.445 36.2875 103.445 36.2875Z" fill="#85B539"/>
<path d="M86.3499 51.4681C86.3499 51.3314 86.4866 51.3314 86.4866 51.1946C86.6234 51.0579 86.7601 50.7843 86.8969 50.6476C87.0337 50.374 87.3072 50.1005 87.7175 49.827C87.991 49.5535 88.4013 49.2799 88.9484 49.0064C89.3586 48.7329 89.9057 48.4594 90.4527 48.1858C90.9998 47.9123 91.5469 47.6388 92.2307 47.3653C92.7777 47.0917 93.4615 46.8182 94.1453 46.4079C94.6924 45.9976 95.3762 45.7241 95.9233 45.177C96.4703 44.63 96.8806 44.0829 97.2909 43.5359C97.7012 42.9888 98.1115 42.305 98.385 41.758C98.7953 41.2109 99.0688 40.6639 99.4791 40.1168C99.8894 39.5698 100.163 39.1595 100.573 38.7492C100.71 38.6124 100.983 38.3389 101.12 38.2021C101.257 38.0654 101.531 37.9286 101.667 37.7918C102.078 37.5183 102.351 37.3816 102.761 37.2448C103.035 37.108 103.308 37.108 103.445 37.108C103.582 37.108 103.582 37.108 103.582 37.108H103.445C103.308 37.108 103.035 37.2448 102.761 37.3816C102.488 37.5183 102.078 37.6551 101.804 37.9286C101.394 38.2021 101.12 38.4757 100.71 38.886C100.3 39.2962 100.026 39.7065 99.6159 40.2536C99.2056 40.8006 98.9321 41.3477 98.5218 41.8947C98.1115 42.4418 97.8379 43.1256 97.4277 43.6727C97.0174 44.2197 96.6071 44.9035 96.06 45.4506C95.513 45.9976 94.9659 46.4079 94.2821 46.6814C93.5983 47.0917 93.0512 47.3653 92.3674 47.6388C91.6836 47.9123 91.1366 48.1858 90.5895 48.4594C90.0425 48.7329 89.4954 49.0064 89.0851 49.2799C88.6748 49.5535 88.2645 49.827 87.8542 50.1005C87.444 50.374 87.1704 50.6476 87.0337 50.9211C86.8969 51.1946 86.6234 51.3314 86.6234 51.4681C86.4866 51.3314 86.4866 51.4681 86.3499 51.4681Z" fill="#104414"/>
<path d="M86.4866 50.2373C86.4866 50.1005 86.4866 49.9637 86.4866 49.6902C86.4866 49.4167 86.6233 49.1432 86.6233 48.7329C86.7601 48.3226 86.8969 48.0491 87.0336 47.6388C87.1704 47.502 87.3072 47.2285 87.4439 47.0917C87.5807 46.955 87.7174 46.6814 87.8542 46.5447C88.1277 46.1344 88.538 45.7241 88.9483 45.3138C89.3586 44.9035 89.7689 44.63 90.3159 44.2197C90.5895 44.0829 90.863 43.9462 90.9997 43.8094C91.2733 43.6726 91.5468 43.5359 91.8203 43.3991C92.3674 43.1256 92.9144 42.9888 93.4615 42.7153C94.0085 42.4418 94.5556 42.305 94.9659 42.0315C95.5129 41.758 95.9232 41.4844 96.3335 41.3477C96.7438 41.0741 97.1541 40.8006 97.4276 40.5271C97.7011 40.2536 98.1114 39.98 98.385 39.7065C98.6585 39.433 98.7952 39.2962 99.0688 39.0227C99.2055 38.8859 99.3423 38.6124 99.479 38.6124C99.479 38.6124 99.3423 38.7492 99.3423 38.8859C99.3423 39.0227 99.2055 39.0227 99.2055 39.1595C99.0688 39.2962 98.7952 39.5698 98.6585 39.8433C98.3849 40.1168 98.1114 40.3903 97.8379 40.6639C97.5644 40.9374 97.1541 41.2109 96.7438 41.4844C96.3335 41.758 95.9232 42.0315 95.3762 42.305C94.8291 42.5785 94.4188 42.8521 93.8718 42.9888C93.3247 43.2624 92.7777 43.3991 92.2306 43.6726C91.9571 43.8094 91.6836 43.9462 91.41 44.0829C91.1365 44.2197 90.863 44.3565 90.7262 44.4932C90.4527 44.63 90.3159 44.7667 90.0424 45.0403C89.7689 45.177 89.6321 45.4506 89.3586 45.5873C88.9483 45.9976 88.538 46.2711 88.2645 46.6814C87.991 47.0917 87.7174 47.502 87.4439 47.7755C87.1704 48.1858 87.0336 48.4593 86.8969 48.8696C86.7601 49.1432 86.7601 49.5534 86.6233 49.6902C86.6233 49.9637 86.4866 50.1005 86.4866 50.2373Z" fill="#104414"/>
<path d="M89.769 88.6678C94.5557 86.2061 94.1454 81.4194 98.2483 81.0091C96.6072 78.4106 92.7778 78.1371 90.1793 78.6841C88.6749 78.9577 85.8029 81.4194 85.2558 82.9238C83.6147 86.7532 85.3926 88.8046 84.572 89.7619C84.4353 89.6252 87.0338 90.0355 89.769 88.6678Z" fill="#6E953F"/>
<path d="M85.2556 89.7618C84.7086 89.7618 84.2983 89.7618 84.2983 89.7618H84.0248L84.1615 89.6251C84.4351 89.2148 84.4351 88.6677 84.2983 87.8471C84.1615 86.6163 83.888 84.9751 84.8454 82.6502C85.3924 81.2825 88.2644 78.684 89.9056 78.4105C90.5894 78.2737 91.2732 78.2737 92.0938 78.2737C94.8291 78.2737 97.0173 79.2311 98.1114 80.8722L98.2481 81.009H98.1114C96.0599 81.2825 95.2393 82.6502 94.1452 84.1545C93.1879 85.6589 92.0938 87.4369 89.6321 88.6677C88.1277 89.6251 86.3497 89.7618 85.2556 89.7618ZM84.5718 89.4883C84.7086 89.4883 84.9821 89.4883 85.2556 89.4883C86.3497 89.4883 87.9909 89.3515 89.6321 88.3942C91.957 87.1633 93.0511 85.5222 94.0085 84.0178C94.9658 82.3766 95.9232 81.009 97.8378 80.7355C96.7437 79.2311 94.6923 78.4105 92.0938 78.4105C91.41 78.4105 90.5894 78.4105 90.0424 78.5473C88.538 78.8208 85.8027 81.2825 85.2556 82.6502C84.2983 84.8384 84.5718 86.4795 84.7086 87.7104C84.8454 88.531 84.8454 89.078 84.5718 89.4883Z" fill="#234F1B"/>
<path d="M96.6071 80.1883C95.3763 79.0942 92.0939 78.5472 90.0425 79.231C87.0337 80.1883 87.1705 82.9236 86.2131 85.2485C87.0337 83.3339 88.1278 83.3339 89.9057 83.0603C91.5469 82.7868 93.188 81.2824 93.8719 80.8721C94.4189 80.4618 96.6071 80.1883 96.6071 80.1883Z" fill="#85B539"/>
<path d="M85.1189 89.078C85.1189 89.078 85.1189 88.9412 85.2557 88.9412C85.2557 88.8045 85.3924 88.6677 85.5292 88.5309C85.6659 88.3942 85.8027 88.2574 86.0762 87.9839C86.3498 87.8471 86.6233 87.7104 86.8968 87.4368C87.1703 87.3001 87.5806 87.1633 87.8542 87.0266C88.2644 86.8898 88.538 86.753 88.9483 86.6163C89.3585 86.4795 89.7688 86.3427 90.1791 86.0692C90.5894 85.9325 90.9997 85.6589 91.2732 85.3854C91.5468 85.1119 91.957 84.7016 92.2306 84.4281C92.5041 84.0178 92.7776 83.7442 93.0511 83.334C93.3247 82.9237 93.5982 82.6501 93.8717 82.3766C94.1453 82.1031 94.4188 81.8296 94.6923 81.556C94.9658 81.2825 95.2394 81.1457 95.5129 81.009C95.7864 80.8722 96.0599 80.7355 96.1967 80.7355C96.3335 80.7355 96.607 80.7355 96.607 80.5987H96.7437C96.7437 80.5987 96.7437 80.5987 96.607 80.5987C96.4702 80.5987 96.3335 80.5987 96.1967 80.7355C96.0599 80.7355 95.7864 80.8722 95.5129 81.009C95.2394 81.1457 94.9658 81.2825 94.8291 81.556C94.5555 81.8296 94.282 82.1031 94.1453 82.3766C93.8717 82.6501 93.5982 83.0604 93.4614 83.334C93.1879 83.7442 92.9144 84.0178 92.6409 84.4281C92.3673 84.8383 92.0938 85.1119 91.6835 85.5222C91.2732 85.7957 90.8629 86.0692 90.4527 86.206C90.0424 86.3427 89.6321 86.6163 89.2218 86.753C88.8115 86.8898 88.4012 87.0266 88.1277 87.1633C87.7174 87.3001 87.4439 87.4368 87.1703 87.5736C86.8968 87.7104 86.6233 87.8471 86.3498 87.9839C86.0762 88.1207 85.9395 88.2574 85.8027 88.3942C85.3924 88.8045 85.2557 88.9412 85.1189 89.078C85.2557 89.078 85.2557 89.078 85.1189 89.078Z" fill="#104414"/>
<path d="M85.2557 88.3941C85.2557 88.1206 85.2557 87.9838 85.2557 87.8471C85.2557 87.7103 85.3925 87.4368 85.3925 87.3C85.5293 87.0265 85.5293 86.8897 85.666 86.6162C85.8028 86.3427 85.9396 86.0692 86.2131 85.9324C86.4866 85.6589 86.6234 85.3853 86.8969 85.2486C87.1704 84.9751 87.4439 84.8383 87.8542 84.5648C87.991 84.428 88.1278 84.428 88.4013 84.2912C88.538 84.1545 88.8116 84.1545 88.9483 84.0177C89.3586 83.881 89.6322 83.7442 90.0424 83.6074C90.316 83.4707 90.7263 83.3339 90.9998 83.1971C91.2733 83.0604 91.6836 82.9236 91.9571 82.7868C92.2306 82.6501 92.5042 82.5133 92.7777 82.3766C93.0512 82.2398 93.188 82.103 93.3247 81.9663C93.4615 81.8295 93.5983 81.6927 93.735 81.556C93.8718 81.4192 93.8718 81.4192 94.0086 81.2825L94.1453 81.1457C94.1453 81.1457 94.1453 81.1457 94.0086 81.2825C94.0086 81.4192 93.8718 81.4192 93.735 81.556C93.5983 81.6927 93.4615 81.8295 93.3247 81.9663C93.188 82.103 92.9145 82.2398 92.7777 82.5133C92.5042 82.6501 92.2306 82.7868 91.9571 83.0604C91.6836 83.1971 91.4101 83.3339 90.9998 83.4707C90.7263 83.6074 90.316 83.7442 90.0424 83.881C89.7689 84.0177 89.3586 84.1545 88.9483 84.2912C88.8116 84.2912 88.538 84.428 88.4013 84.428C88.2645 84.5648 88.1278 84.5648 87.8542 84.7015C87.7175 84.8383 87.5807 84.8383 87.4439 84.9751C87.3072 85.1118 87.1704 85.1118 87.0337 85.2486C86.7601 85.5221 86.4866 85.6589 86.3498 85.9324C86.0763 86.2059 85.9396 86.3427 85.8028 86.6162C85.666 86.8897 85.5293 87.0265 85.3925 87.3C85.2557 87.4368 85.2557 87.7103 85.2557 87.8471C85.2557 88.1206 85.2557 88.2574 85.2557 88.3941Z" fill="#104414"/>
<path opacity="0.5" d="M56.1252 47.2285C60.2281 43.2624 64.6046 48.5961 68.981 46.2711C70.7589 45.3138 71.4427 43.2624 73.6309 42.7153C76.5029 41.8947 77.8706 43.5359 79.1014 45.5873C76.3662 41.3477 73.0839 47.0917 70.7589 48.7329C66.2457 51.8784 63.1002 47.0917 59.134 47.0917C58.3135 46.955 56.1252 47.2285 56.1252 47.2285Z" fill="#2E6525"/>
<path opacity="0.7" d="M86.2131 26.8508C89.4954 22.7479 91.9572 20.4229 91.9572 15.4995C93.7351 19.0553 92.5042 23.842 88.9484 25.4831L86.2131 26.8508Z" fill="#2E6525"/>
<path d="M100.622 74.0298L98.6553 76.8269L108.166 83.5124L110.132 80.7152L100.622 74.0298Z" fill="#43405A"/>
<path d="M125.874 89.625C126.968 90.4455 127.242 92.0867 126.558 93.1808L125.601 94.5484C124.78 95.6425 123.139 95.916 122.045 95.2322L105.223 83.3339C104.129 82.5133 103.855 80.8721 104.539 79.778L105.497 78.4104C106.317 77.3163 107.958 77.0428 109.052 77.7266L125.874 89.625Z" fill="#44B4A6"/>
<path d="M105.36 78.4104C105.36 78.4104 110.42 81.4192 117.669 86.4794C124.507 91.2661 125.874 93.8646 125.874 93.8646L126.285 93.1808C127.105 92.0867 126.832 90.4455 125.601 89.625L108.779 77.7266C107.822 77.0428 106.18 77.3163 105.36 78.4104Z" fill="#40A395"/>
<path d="M102.761 73.0766C102.351 74.3075 101.804 75.4016 100.983 76.3589C96.4703 82.7868 87.444 84.4279 81.0161 79.778C75.6823 76.0854 73.6309 69.2472 75.8191 63.2297C76.2294 61.9988 76.7764 60.9047 77.597 59.9474C82.1102 53.5195 91.1366 51.8783 97.5644 56.5283C102.898 60.0841 104.95 66.9223 102.761 73.0766ZM77.8705 63.9135C75.9559 69.1105 77.8705 74.8545 82.247 78.0001C87.7175 81.8294 95.3762 80.5986 99.2056 74.9913C99.8894 74.1707 100.3 73.2134 100.71 72.1193C102.625 66.9223 100.71 61.1782 96.3335 58.0327C90.863 54.2033 83.2043 55.4342 79.3749 61.0415C78.8279 61.9988 78.2808 62.9562 77.8705 63.9135Z" fill="#2E415F"/>
<g opacity="0.5">
<path d="M96.6071 57.7592C102.351 61.7253 103.719 69.6576 99.7526 75.4016C95.7865 81.1457 87.8542 82.5133 82.1102 78.5472C76.3662 74.5811 74.9985 66.6488 78.9646 60.9048C82.9308 55.024 90.863 53.6563 96.6071 57.7592Z" fill="white"/>
</g>
<g opacity="0.7">
<path d="M81.5631 62.6827C81.5631 62.6827 88.1277 55.571 97.0173 61.8621C98.7952 63.2298 94.0085 57.2122 89.6321 57.2122C84.1616 57.0754 81.5631 62.6827 81.5631 62.6827Z" fill="white"/>
</g>
<path d="M68.7075 112.328C69.1178 113.148 69.2546 113.969 69.3913 114.789C70.0751 120.123 65.6987 125.457 59.6811 126.688C54.7577 127.782 49.971 125.73 48.1931 121.901C47.7828 121.081 47.646 120.26 47.5092 119.439C46.8254 114.106 51.2018 108.772 57.2194 107.541C62.1429 106.447 66.9296 108.498 68.7075 112.328ZM49.6974 121.217C51.2018 124.5 55.3047 126.278 59.4076 125.32C64.6046 124.226 68.2972 119.713 67.7502 115.2C67.6134 114.516 67.4766 113.832 67.2031 113.148C65.6987 109.866 61.5958 108.088 57.4929 109.045C52.2959 110.139 48.6033 114.653 49.1504 119.166C49.1504 119.85 49.4239 120.533 49.6974 121.217Z" fill="#2E415F"/>
<g opacity="0.5">
<path d="M57.3562 108.635C62.6899 107.541 67.6134 110.413 68.1605 115.063C68.7075 119.713 64.8781 124.5 59.5444 125.73C54.2106 126.825 49.2872 123.953 48.7401 119.303C48.0563 114.516 52.0224 109.729 57.3562 108.635Z" fill="white"/>
</g>
<path d="M84.4352 131.611L91.4101 131.338L92.3675 131.064L91.5469 128.055L90.7263 128.329L84.2985 131.064L84.4352 131.611Z" fill="#FFCF9C"/>
<path d="M84.4352 131.611L92.2307 130.517L91.8204 128.739L84.2985 131.064L84.4352 131.611Z" fill="#ECBA84"/>
<path d="M91.8204 130.244L85.666 131.201L84.4352 131.748L91.6836 131.338L92.0939 131.201L91.8204 130.244Z" fill="#C6794D"/>
<path d="M85.8028 131.611L82.9308 131.748L86.4866 130.107L86.2131 130.928L85.8028 131.611Z" fill="#A44AA0"/>
<path d="M82.9308 131.748L86.0763 131.201L85.9396 131.611L82.9308 131.748Z" fill="#530254"/>
<path d="M82.9308 131.611L86.4866 130.38V130.107L82.9308 131.611Z" fill="#C499C8"/>
<path d="M92.0937 131.201L91.957 130.517L91.5467 128.739C91.5467 128.739 90.8629 128.876 90.7261 128.602C90.5893 128.329 91.2731 128.055 91.2731 128.055L130.524 118.755L131.345 119.303L131.755 120.807L131.208 121.764L92.0937 131.201Z" fill="#C499C8"/>
<path d="M131.482 119.303L131.892 120.807L91.9572 130.38C91.9572 130.38 91.1366 130.38 90.9999 129.833C90.8631 129.15 91.6837 128.876 91.6837 128.876L131.482 119.303Z" fill="#A44AA0"/>
<path d="M131.345 121.764L131.892 120.67L91.9571 130.244C91.9571 130.244 91.2733 130.38 91.4101 130.927C91.4101 131.338 92.2306 131.201 92.2306 131.201L131.345 121.764Z" fill="#753877"/>
</svg>
